<?xml version="1.0" encoding="UTF-8" standalone="no"?>
<!-- Created with Inkscape (http://www.inkscape.org/) -->

<svg
   xmlns:dc="http://purl.org/dc/elements/1.1/"
   xmlns:cc="http://creativecommons.org/ns#"
   xmlns:rdf="http://www.w3.org/1999/02/22-rdf-syntax-ns#"
   xmlns:svg="http://www.w3.org/2000/svg"
   xmlns="http://www.w3.org/2000/svg"
   xmlns:sodipodi="http://sodipodi.sourceforge.net/DTD/sodipodi-0.dtd"
   xmlns:inkscape="http://www.inkscape.org/namespaces/inkscape"
   width="225.95512mm"
   height="217.80943mm"
   id="svg2"
   version="1.1"
   inkscape:version="0.91 r13725"
   sodipodi:docname="boldair.svg">
  <defs
     id="defs4" />
  <sodipodi:namedview
     id="base"
     pagecolor="#ffffff"
     bordercolor="#666666"
     borderopacity="1.0"
     inkscape:pageopacity="0.0"
     inkscape:pageshadow="2"
     inkscape:zoom="0.7"
     inkscape:cx="-154.45866"
     inkscape:cy="357.36495"
     inkscape:document-units="px"
     inkscape:current-layer="layer1"
     showgrid="false"
     inkscape:window-width="1855"
     inkscape:window-height="1056"
     inkscape:window-x="65"
     inkscape:window-y="24"
     inkscape:window-maximized="1"
     fit-margin-top="0"
     fit-margin-left="0"
     fit-margin-right="0"
     fit-margin-bottom="0" />
  <metadata
     id="metadata7">
    <rdf:RDF>
      <cc:Work
         rdf:about="">
        <dc:format>image/svg+xml</dc:format>
        <dc:type
           rdf:resource="http://purl.org/dc/dcmitype/StillImage" />
        <dc:title></dc:title>
      </cc:Work>
    </rdf:RDF>
  </metadata>
  <g
     inkscape:label="Calque 1"
     inkscape:groupmode="layer"
     id="layer1"
     transform="translate(51.095973,-133.68131)">
    <path
       style="fill:none;stroke:#000000;stroke-width:1px;stroke-linecap:butt;stroke-linejoin:miter;stroke-opacity:1"
       d="m 617.20321,663.95853 c -2.31212,-1.07007 -5.80449,-0.82074 -7.57615,1.01015 -3.52975,3.64777 -3.75876,10.59906 -1.51523,15.15229 2.53987,5.15467 9.00987,7.97693 14.64721,9.09137 5.02322,0.99304 11.94119,1.46306 15.15229,-2.52538 2.11425,-2.62606 1.508,-7.39712 -0.50507,-10.10152 -3.30674,-4.44234 -11.31735,-2.1159 -15.65737,-5.55584 -2.19592,-1.74051 -2.00276,-5.89419 -4.54568,-7.07107 z"
       id="path3177"
       inkscape:connector-curvature="0" />
    <path
       style="fill:none;stroke:#000000;stroke-width:1px;stroke-linecap:butt;stroke-linejoin:miter;stroke-opacity:1"
       d="m 625.7895,653.857 c -3.02927,0.1886 -6.28622,2.30338 -7.57614,5.05077 -1.367,2.91155 -1.00475,7.08926 1.01015,9.59645 3.66859,4.56492 10.97132,4.19555 16.66752,5.55583 4.46962,1.06737 9.46501,3.94664 13.63706,2.02031 2.88401,-1.33161 4.70313,-4.92371 5.05076,-8.08122 0.33215,-3.0169 -0.55276,-6.83329 -3.03046,-8.5863 -3.9857,-2.81994 -9.89542,1.12175 -14.64721,0 -4.0303,-0.95142 -6.9786,-5.81316 -11.11168,-5.55584 z"
       id="path3175"
       inkscape:connector-curvature="0" />
    <path
       style="fill:none;stroke:#000000;stroke-width:1px;stroke-linecap:butt;stroke-linejoin:miter;stroke-opacity:1"
       d="m 656.09408,639.71487 c -7.27197,-2.66378 -15.7611,-2.0348 -23.23351,0 -3.20389,0.87245 -7.20324,2.03195 -8.5863,5.05076 -1.56802,3.42252 -0.59977,8.40844 2.02031,11.11168 3.35534,3.46183 9.3479,2.52256 14.14213,3.03046 4.52039,0.47889 9.20212,0.99727 13.63706,0 3.45331,-0.77653 7.87198,-1.45465 9.59645,-4.54569 1.48553,-2.66275 0.42376,-6.40047 -1.01015,-9.09137 -1.34829,-2.53023 -3.87388,-4.5697 -6.56599,-5.55584 z"
       id="path3173"
       inkscape:connector-curvature="0" />
    <path
       style="fill:none;stroke:#000000;stroke-width:1px;stroke-linecap:butt;stroke-linejoin:miter;stroke-opacity:1"
       d="m 493.96459,589.20724 c 8.82851,0.58768 4.98471,17.19759 9.59645,24.74874 3.16999,5.19047 6.71032,10.86121 12.12183,13.63706 11.29098,5.79175 25.17615,3.75985 37.86461,3.94295 17.5621,0.25342 35.90745,1.68868 52.54404,-3.94295 4.37889,-1.48229 7.18544,-6.25885 11.61676,-7.57615 5.16413,-1.53515 11.02002,-1.60637 16.16244,0 2.5409,0.79372 3.99307,3.86288 6.56599,4.54569 3.75682,0.997 7.97376,0.34494 11.61676,-1.01015 3.50364,-1.30325 5.43208,-7.32989 9.09137,-6.56599 4.21143,0.87916 6.64693,6.81022 6.56599,11.11167 -0.0527,2.80155 -2.48537,5.17196 -4.54568,7.07107 -2.10446,1.93981 -7.3433,1.188 -7.57615,4.04061 -0.29312,3.59109 7.17112,3.25251 8.5863,6.56599 1.19761,2.80407 0.78449,6.62636 -1.01015,9.09138 -2.17327,2.98508 -8.51654,1.21077 -10.10153,4.54568 -1.12192,2.36059 2.4945,5.00589 2.02031,7.57615 -0.67822,3.67613 -3.10865,7.66988 -6.566,9.09137 -3.78862,1.55769 -9.37534,-5.05953 -12.12183,-2.02031 -2.57406,2.84841 4.8059,7.7077 3.03046,11.11168 -2.31489,4.43824 -9.15102,5.43214 -14.14213,5.05076 -7.0605,-0.53951 -15.34097,-3.8613 -18.68783,-10.10152 -2.63678,-4.91628 3.17473,-11.34131 1.51523,-16.66752 -1.95574,-6.277 -7.08001,-11.62275 -12.6269,-15.15229 -5.58134,-3.55146 -12.61904,-4.31017 -19.1929,-5.05076 -15.23261,-1.71606 -30.63378,1.67285 -45.96194,1.51523 -9.44111,-0.0971 -19.15657,0.8991 -28.28427,-1.51523 -4.73129,-1.25145 -9.45214,-3.33954 -13.13199,-6.56599 -5.19638,-4.55613 -11.29925,-10.26897 -11.61675,-17.17259 -0.52965,-11.51641 5.16439,-31.0703 16.66751,-30.30458 z"
       id="path3171"
       inkscape:connector-curvature="0" />
    <path
       style="fill:none;stroke:#000000;stroke-width:1px;stroke-linecap:butt;stroke-linejoin:miter;stroke-opacity:1"
       d="m 386.88843,694.76818 c 3.53553,1.51523 15.32845,-5.29542 22.72843,-8.5863 17.13147,-7.61861 32.45751,-19.14814 50.00255,-25.75889 7.14538,-2.69229 14.67074,-6.67969 22.22335,-5.55583 3.884,0.57796 7.9517,2.77492 10.10153,6.06091 2.88106,4.40367 2.08431,10.39537 2.0203,15.65737 -0.13467,11.07125 -3.18228,21.91668 -5.05076,32.82995 -1.53239,8.95022 -3.92359,17.75882 -5.05076,26.76905 -1.00509,8.03436 1.4435,16.70661 -1.51523,24.24366 -1.74873,4.45471 -5.55809,7.88392 -9.09137,11.11167 -4.65423,4.25176 -10.10417,7.62311 -15.65737,10.60661 -2.72663,1.46491 -6.01194,5.25402 -8.58629,3.53553 -5.60242,-3.73986 -0.66157,-13.49883 -0.06,-20.20791 1.58977,-17.73 12.2964,-34.91878 9.6565,-52.52307 -0.70354,-4.69156 -2.06669,-11.12296 -6.566,-12.62691 -12.21276,-4.08225 -23.48428,10.61519 -34.85026,16.66752 -9.65923,5.14349 -18.40234,11.96606 -28.28427,16.66751 -5.67623,2.70054 -11.47428,5.5509 -17.67767,6.566 -10.63873,1.74087 -22.20933,2.71662 -32.32488,-1.01016 -7.08088,-2.60875 -13.63798,-7.76833 -17.67767,-14.14213 -3.89118,-6.13948 -5.28607,-13.94829 -5.05076,-21.21321 0.37065,-11.44363 5.68272,-22.26736 10.10152,-32.82995 4.79675,-11.46602 17.67767,-32.82996 17.67767,-32.82996"
       id="path3169"
       inkscape:connector-curvature="0" />
    <path
       style="fill:none;stroke:#000000;stroke-width:1px;stroke-linecap:butt;stroke-linejoin:miter;stroke-opacity:1"
       d="m 510.63216,570.01434 c 0,0 -13.44623,13.02848 -18.68782,20.70813 -6.15454,9.01726 -10.29741,19.281 -14.64721,29.29442 -5.58208,12.85019 -14.64721,39.39595 -14.64721,39.39595"
       id="path3167"
       inkscape:connector-curvature="0" />
    <path
       style="fill:none;stroke:#000000;stroke-width:1px;stroke-linecap:butt;stroke-linejoin:miter;stroke-opacity:1"
       d="m 407.5966,573.54988 c 0,0 8.61701,-3.94158 13.13199,-3.53554 7.05062,0.63407 14.62855,3.68026 19.19289,9.09137 2.81817,3.34099 3.53554,12.62691 3.53554,12.62691"
       id="path3165"
       inkscape:connector-curvature="0" />
    <path
       style="fill:none;stroke:#000000;stroke-width:1px;stroke-linecap:butt;stroke-linejoin:miter;stroke-opacity:1"
       d="m 406.08137,538.19454 c 0,0 3.61456,7.88402 4.04061,12.12183 0.69561,6.91897 -2.43888,13.75481 -2.52538,20.70812 -0.0652,5.2431 -1.00163,11.0574 1.51523,15.65737 2.87762,5.25931 8.44106,9.2573 14.14214,11.11168 4.32573,1.40702 9.4825,1.34727 13.63706,-0.50508 6.63341,-2.95757 9.35787,-11.27853 15.15228,-15.65736 6.24979,-4.72296 13.41858,-8.24312 20.70813,-11.11168 6.15596,-2.42247 19.1929,-5.05076 19.1929,-5.05076"
       id="path3163"
       inkscape:connector-curvature="0" />
    <path
       style="fill:none;stroke:#000000;stroke-width:1px;stroke-linecap:butt;stroke-linejoin:miter;stroke-opacity:1"
       d="m 428.80981,530.11332 c 0,0 -5.79836,6.09813 -9.59645,7.57614 -4.24784,1.65303 -9.39044,2.66632 -13.63706,1.01015 -3.44004,-1.3416 -7.57615,-8.08122 -7.57615,-8.08122"
       id="path3161"
       inkscape:connector-curvature="0" />
    <path
       style="fill:none;stroke:#000000;stroke-width:1px;stroke-linecap:butt;stroke-linejoin:miter;stroke-opacity:1"
       d="m 457.09408,560.92297 c 0,0 -2.3838,5.94089 -5.05077,7.07107 -6.26994,2.65701 -14.12296,0.0362 -20.20305,-3.03046 -4.88946,-2.46614 -9.0619,-6.77306 -11.61675,-11.61676 -2.55727,-4.84827 -3.03046,-16.16244 -3.03046,-16.16244"
       id="path3159"
       inkscape:connector-curvature="0" />
    <path
       style="fill:none;stroke:#000000;stroke-width:1px;stroke-linecap:butt;stroke-linejoin:miter;stroke-opacity:1"
       d="m 525.27937,529.60824 c 0,0 9.89919,4.34654 13.63706,8.08122 4.43232,4.42853 7.76111,10.1717 9.59645,16.16244 0.83983,2.74129 -0.23531,5.8165 0.50508,8.5863 3.79151,14.18399 11.11325,27.48529 19.69797,39.39595 2.78434,3.86306 8.9638,5.47753 10.10153,10.10152 0.67429,2.74047 -0.2807,6.37059 -2.52538,8.08122 -3.88559,2.96115 -10.30087,2.73568 -14.64721,0.50508 -5.94062,-3.0488 -6.49127,-11.84694 -11.11168,-16.66752 -5.33603,-5.56721 -13.29449,-8.12534 -18.68782,-13.63706 -4.73635,-4.84032 -6.19268,-12.61276 -11.61676,-16.66751 -5.54345,-4.14399 -12.88906,-5.32455 -19.69797,-6.566 -12.76305,-2.32705 -27.05541,3.7982 -38.89088,-1.51522 -5.53992,-2.4871 -9.71678,-7.80211 -12.6269,-13.13199 -1.74167,-3.18986 -2.52538,-10.6066 -2.52538,-10.6066"
       id="path3157"
       inkscape:connector-curvature="0" />
    <path
       style="fill:none;stroke:#000000;stroke-width:1px;stroke-linecap:butt;stroke-linejoin:miter;stroke-opacity:1"
       d="m 373.25142,655.37223 c 0,0 2.95596,-10.11179 0.50507,-14.14213 -1.83908,-3.02426 -6.12885,-3.83567 -9.59645,-4.54569 -8.58305,-1.75744 -17.54752,1.89392 -26.26396,1.01015 -9.14065,-0.92678 -19.93059,-0.43036 -26.76905,-6.56599 -2.9335,-2.63201 -4.08833,-7.17079 -4.04061,-11.11168 0.0504,-4.15785 1.62198,-8.66004 4.54569,-11.61675 6.80186,-6.87863 18.03066,-7.02818 26.90536,-10.87793 8.97807,-3.89459 21.85816,-3.81292 26.63273,-12.35558 2.81197,-5.03118 -2.95354,-11.48497 -2.02031,-17.17259 1.71933,-10.4785 11.89203,-18.3151 13.63706,-28.78935 1.97683,-11.86557 2.1676,-25.55714 -4.04061,-35.86042 -2.31362,-3.83973 -6.98599,-5.82255 -11.11168,-7.57614 -3.79848,-1.61452 -8.47196,-0.59831 -12.12183,-2.52538 -10.95062,-5.78174 -15.66976,-20.26793 -26.76904,-25.75889 -7.93925,-3.92765 -18.50047,0.2239 -26.26397,-4.04061 -3.13721,-1.72328 -5.19411,-5.03347 -7.07107,-8.08122 -3.52477,-5.72341 -1.95599,-15.00064 -7.57614,-18.68782 -5.7732,-3.7876 -13.89399,1.62007 -20.70813,0.50507 -3.88945,-0.63643 -7.68919,-2.08626 -11.11167,-4.04061 -3.21975,-1.83858 -4.93076,-6.45122 -8.5863,-7.07107 -6.72206,-1.13982 -12.52774,5.63546 -19.1929,7.07107 -4.6201,0.99512 -9.78878,2.84968 -14.14214,1.01015 -3.85215,-1.62775 -4.04758,-8.49262 -8.08122,-9.59644 -3.44094,-0.94163 -8.24869,0.48696 -10.10152,3.53553 -2.47318,4.06928 3.59878,9.64946 2.0203,14.14213 -1.22396,3.48363 -4.5139,6.62323 -8.08122,7.57615 -5.68131,1.51762 -11.73488,-6.27932 -17.17259,-4.04061 -2.93738,1.20933 -2.21079,6.65811 -5.05076,8.08122 -3.62496,1.81647 -8.41299,-2.64856 -12.12183,-1.01015 -2.52581,1.1158 -2.51341,5.47672 -5.05077,6.56599 -10.4217,4.47395 -26.2486,4.89044 -33.84011,-3.53554 -1.80308,-2.00128 -1.80751,-6.08394 0,-8.08122 4.54132,-5.0181 13.82051,0.23095 20.20305,-2.0203 9.29187,-3.27743 14.9307,-15.33382 24.74874,-16.16244 4.20746,-0.3551 7.94446,7.13476 11.61676,5.05076 4.57677,-2.59728 0.13239,-10.74528 2.0203,-15.65736 1.91,-4.96957 4.41879,-10.58019 9.09137,-13.13199 4.28759,-2.34154 9.93389,-1.78991 14.64722,-0.50507 4.2357,1.15464 6.79606,6.26492 11.11167,7.07106 2.53161,0.47289 5.7358,0.28639 7.57615,-1.51522 2.21836,-2.17166 2.69479,-6.06115 2.0203,-9.09138 -2.2169,-9.95969 -16.36511,-14.30812 -18.68782,-24.24366 -0.9771,-4.17963 -0.14272,-9.26457 2.52538,-12.6269 3.79353,-4.78059 13.96536,-2.10411 16.66752,-7.57615 0.99454,-2.01401 0.19426,-5.10894 -1.51523,-6.56599 -7.57713,-6.45821 -21.23076,3.04901 -29.7995,-2.02031 -6.7125,-3.97115 -16.72584,-13.06273 -12.62691,-19.69797 8.36426,-13.53984 32.71828,-0.90434 47.47717,5.05076 7.12055,2.87309 15.13521,7.09449 18.18275,14.14214 2.14767,4.96664 1.27672,11.52724 -1.51523,16.16244 -3.01168,5.00001 -11.67739,4.57146 -14.64721,9.59645 -1.11687,1.88976 -1.28643,4.51463 -0.50508,6.56599 4.40777,11.57222 16.13583,19.41228 26.76904,25.75889 15.63586,9.33252 35.97686,8.05928 52.02286,16.66752 5.69973,3.05775 9.14734,9.71823 15.15229,12.12183 10.82558,4.33316 24.21162,-1.74329 34.85026,3.03045 3.80305,1.70649 5.38851,6.67211 9.09137,8.5863 6.10076,3.15378 13.7461,1.70112 20.20306,4.04061 8.28716,3.00261 14.43194,13.10143 23.2335,12.62691 5.31625,-0.28662 9.69837,-5.0226 13.13199,-9.09137 5.39199,-6.3894 9.55895,-14.43384 10.6066,-22.72844 0.34343,-2.71908 0.51588,-6.24113 -1.51523,-8.08122 -2.88054,-2.60963 -9.16675,2.00734 -11.61675,-1.01015 -6.19969,-7.63572 4.20405,-19.4815 3.53553,-29.29442 -0.49682,-7.29266 -1.15802,-15.37464 -5.55584,-21.21321 -3.7697,-5.00467 -11.73667,-5.16137 -16.16244,-9.59645 -3.03892,-3.04532 -3.41919,-8.17796 -6.56599,-11.11167 -3.02894,-2.82383 -7.65454,-3.27621 -11.11168,-5.55584 -4.78706,-3.15657 -7.69777,-9.28162 -13.13198,-11.11168 -6.07145,-2.04466 -13.01462,2.70482 -19.1929,1.01015 -4.68323,-1.28458 -9.56877,-3.95028 -12.12183,-8.08122 -2.85441,-4.61853 1.66294,-12.17344 -2.02031,-16.16244 -3.38231,-3.66309 -10.38927,-0.43658 -14.64721,-3.03046 -3.88473,-2.36653 -7.66584,-6.1519 -8.58629,-10.6066 -0.88444,-4.28043 -0.14289,-10.26608 3.53553,-12.62691 2.72541,-1.74919 6.95461,-0.35779 9.59645,1.51523 2.02784,1.4377 1.49717,5.14323 3.53553,6.56599 4.88098,3.40688 12.66045,-0.67748 17.67767,2.52539 3.38504,2.16092 5.6178,6.19908 6.56599,10.10152 0.79897,3.2883 -2.30514,6.97515 -1.01015,10.10153 0.9157,2.21068 3.28981,3.7771 5.55584,4.54568 10.04963,3.40856 22.02932,-5.10402 31.8198,-1.01015 5.7155,2.38993 6.61473,12.14293 12.62691,13.63706 3.46215,0.86041 8.25258,-0.4846 10.10153,-3.53553 4.84965,-8.00235 -6.43079,-18.73245 -4.04061,-27.7792 0.98067,-3.71181 7.81611,-5.32519 7.07106,-9.09137 -1.05365,-5.32619 -11.65427,-3.25535 -14.14213,-8.08122 -1.5506,-3.00781 -1.56854,-7.91027 1.01015,-10.10153 6.17015,-5.24314 16.98676,-2.07624 24.24366,1.51523 2.9951,1.48229 5.4255,4.43496 6.56599,7.57615 3.27554,9.02169 0.90949,19.29623 -0.50507,28.78934 -1.26449,8.486 -4.05613,16.71623 -7.07107,24.74874 -1.11155,2.96144 -3.85395,5.42864 -4.04061,8.5863 -0.21992,3.72028 1.7988,7.30923 3.53553,10.6066 3.64047,6.91181 11.90365,11.20349 14.14214,18.68782 2.17575,7.27456 -5.01936,15.9924 -1.51523,22.72843 2.99814,5.76337 13.00035,4.73896 16.66752,10.10153 5.49972,8.04235 1.54122,19.70038 5.05076,28.78935 1.36282,3.52942 2.73585,7.79147 6.06092,9.59645 11.54212,6.26553 28.6876,7.09812 39.39595,-0.50508 4.8203,-3.42253 1.73599,-12.63713 6.06091,-16.66752 2.69002,-2.50683 8.50661,-0.0121 10.6066,-3.03046 1.25367,-1.80192 1.10554,-5.07451 -0.50507,-6.56599 -3.58233,-3.31735 -11.42583,3.66886 -14.64722,0 -2.57654,-2.93443 1.41996,-7.71286 1.51523,-11.61675 0.15247,-6.24786 -3.15155,-12.65612 -1.51523,-18.68782 1.07614,-3.96678 6.16793,-6.09182 7.07107,-10.10153 2.43881,-10.82766 -5.68452,-21.73179 -5.55584,-32.82996 0.17495,-15.08848 8.99478,-29.36275 8.5863,-44.44671 -0.15033,-5.55125 -1.65396,-11.14817 -4.04061,-16.16244 -1.44712,-3.04035 -5.12275,-4.84738 -6.06092,-8.08122 -1.78807,-6.16341 -1.71621,-13.6483 1.51523,-19.1929 3.78553,-6.49531 11.39632,-14.4581 18.68782,-12.62691 3.50594,0.88049 5.72936,6.0459 5.05077,9.59645 -0.87416,4.57379 -8.81286,4.79415 -10.6066,9.09138 -0.91025,2.18067 -0.29583,4.8479 0.50507,7.07106 1.96345,5.45023 8.91444,8.47196 10.10153,14.14214 1.33971,6.39914 -3.95025,12.65565 -4.04061,19.1929 -0.052,3.76426 1.91585,7.34851 2.0203,11.11168 0.11298,4.07049 -5.15793,10.30183 -1.51523,12.12183 6.28412,3.13973 9.23907,-10.85486 15.15229,-14.64721 6.2372,-4.00013 14.0294,-11.29032 20.70813,-8.08123 2.5438,1.22228 3.4287,5.40749 2.52538,8.08123 -3.16974,9.38218 -18.17304,9.34826 -24.24366,17.17259 -3.75667,4.84191 -2.76619,12.36445 -6.56599,17.17259 -2.77956,3.51716 -9.65832,3.33538 -11.11168,7.57615 -1.7779,5.18775 5.18922,10.17516 5.05076,15.65736 -0.13184,5.22017 -5.92185,9.43822 -5.55584,14.64721 0.26935,3.83341 4.59981,6.37949 5.55584,10.10153 0.62827,2.44598 -1.20684,5.35779 0,7.57614 3.25823,5.98909 13.64633,5.27638 17.1726,11.11168 1.92355,3.1831 1.72475,7.46181 1.01015,11.11168 -1.05617,5.39443 -6.83354,9.20075 -7.57615,14.64721 -0.99921,7.32849 -1.13153,16.97756 4.54569,21.71828 4.78318,3.99416 12.92748,2.8822 18.68782,0.50508 4.51321,-1.86247 5.85633,-8.19493 10.10153,-10.60661 3.30262,-1.8762 8.6017,0.32548 11.11168,-2.52538 3.46496,-3.93553 -2.03473,-11.79834 1.51523,-15.65736 2.54872,-2.77062 8.19645,0.36167 11.11167,-2.02031 7.72285,-6.31023 2.38884,-22.94458 11.11168,-27.77919 7.48101,-4.14633 18.23121,9.42838 25.25381,4.54568 5.47714,-3.80816 -0.26805,-14.21766 3.53554,-19.69797 3.01274,-4.34084 10.03634,-4.21414 13.63706,-8.08122 2.05232,-2.20415 1.33516,-6.75803 4.04061,-8.08122 1.54234,-0.75434 3.98452,-0.33557 5.05076,1.01015 3.13835,3.96097 0.96884,10.31844 -0.50508,15.15229 -1.38972,4.55771 -6.50442,7.47904 -7.57614,12.12183 -1.44691,6.26815 4.83962,13.41062 2.02031,19.1929 -1.39217,2.85527 -5.08944,3.98307 -8.08122,5.05076 -7.51299,2.68119 -17.62929,-2.0989 -23.73859,3.03046 -3.91515,3.28715 -1.67269,10.41878 -4.54569,14.64721 -4.37393,6.43749 -21.06214,7.41661 -18.18274,14.64721 1.56216,3.92281 8.74827,0.65869 12.6269,-1.01015 8.32247,-3.58088 11.74432,-14.93683 20.20306,-18.18275 6.13014,-2.35236 13.74339,2.7668 19.69797,0 6.3926,-2.97033 7.09386,-13.54046 13.63706,-16.16244 5.81599,-2.33058 12.9937,4.63457 18.68782,2.02031 5.94159,-2.72788 5.98278,-12.10804 11.11168,-16.16244 4.39041,-3.47062 11.70431,-2.09932 15.65736,-6.06092 3.3127,-3.31986 2.49516,-9.19951 5.05077,-13.13198 2.46509,-3.79318 7.91898,-5.39515 9.59645,-9.59645 2.43554,-6.0999 -1.57534,-13.21761 -0.50508,-19.69797 0.55549,-3.36344 0.80564,-7.55463 3.53553,-9.59645 4.05357,-3.03186 11.36617,-4.37005 15.15229,-1.01016 2.39588,2.12616 1.69528,6.62253 0.50508,9.59645 -1.5488,3.86995 -7.73805,4.64374 -9.09137,8.5863 -2.15682,6.28337 5.09731,13.38444 3.03045,19.69797 -1.926,5.88324 -10.58001,7.492 -13.13198,13.13199 -2.15601,4.76489 1.14586,10.89247 -1.01015,15.65736 -1.96305,4.33845 -5.93113,7.80294 -10.10153,10.10153 -4.6859,2.58272 -11.44567,0.23556 -15.65736,3.53553 -3.25967,2.55404 -2.6856,8.12668 -5.55584,11.11168 -2.66354,2.77004 -7.02867,3.24822 -10.10153,5.55584 -3.99814,3.00248 -5.94085,8.80916 -10.6066,10.6066 -6.29201,2.42395 -13.52946,-1.97347 -20.20305,-1.01015 -10.59259,1.52902 -22.79354,2.98262 -30.30458,10.6066 -2.61549,2.65482 -1.29128,7.63133 -3.53553,10.6066 -9.33622,12.37731 -26.02988,16.89946 -38.3858,26.26397 -7.52467,5.70292 -15.22308,11.33027 -21.71828,18.18274 -4.63279,4.88761 -12.12183,16.16244 -12.12183,16.16244"
       id="path3155"
       inkscape:connector-curvature="0" />
    <path
       style="fill:none;stroke:#000000;stroke-width:1px;stroke-linecap:butt;stroke-linejoin:miter;stroke-opacity:1"
       d="m 378.8072,601.83415 c 0,0 -18.1919,6.25568 -21.71828,14.14213 -0.90391,2.02153 -0.7267,5.19233 1.01016,6.56599 6.62365,5.23855 16.97279,-3.67555 25.25381,-2.0203 6.86676,1.37256 11.68627,9.47546 18.68782,9.59645 3.1627,0.0547 5.46363,-3.53601 8.5863,-4.04061 4.18488,-0.67624 9.68682,-1.53869 12.62691,1.51523 5.74055,5.96281 5.22295,17.11643 2.0203,24.74873 -1.52636,3.63751 -5.15221,7.36572 -9.09137,7.57615 -3.03081,0.1619 -4.81297,-6.30648 -7.57615,-5.05076 -3.55516,1.61563 0.34302,8.18217 -1.51522,11.61675 -1.47724,2.73038 -4.22754,4.81532 -7.07107,6.06092 -2.63969,1.1563 -6.15383,2.55549 -8.5863,1.01015 -1.34814,-0.85647 0.0789,-4.64494 -1.51523,-4.54569 -2.57042,0.16003 0.0266,5.5133 -1.51523,7.57615 -2.16413,2.89541 -6.07365,4.24034 -9.59645,5.05076 -5.08891,1.1707 -11.21809,2.24454 -15.65736,-0.50508 -4.22652,-2.61784 -6.53607,-8.18928 -7.07107,-13.13198 -0.39569,-3.65566 0.37544,-8.06273 3.03046,-10.6066 3.12543,-2.99458 8.48748,-4.29576 12.62691,-3.03046 2.62097,0.80116 4.67905,3.46427 5.55584,6.06091 0.59492,1.76185 0.75997,4.19287 -0.50508,5.55584 -1.39335,1.5012 -6.06092,1.01016 -6.06092,1.01016"
       id="path3153"
       inkscape:connector-curvature="0" />
    <path
       style="fill:none;stroke:#000000;stroke-width:1px;stroke-linecap:butt;stroke-linejoin:miter;stroke-opacity:1"
       d="m 607.60676,273.53457 c 7.80679,0.80437 7.1191,-14.8215 13.63706,-19.1929 6.17288,-4.13996 14.31713,-4.36762 21.71828,-5.05076 7.55152,-0.69702 15.30277,2.54993 22.72843,1.01015 7.15161,-1.48295 16.28824,-3.13747 19.69797,-9.59645 2.70107,-5.11657 1.58403,-13.09978 -2.52538,-17.17259 -3.50062,-3.46944 -9.72798,-2.32455 -14.64721,-2.02031 -5.21729,0.32267 -10.72621,6.82163 -15.15229,4.04061 -3.04747,-1.9148 -3.41285,-7.28782 -2.0203,-10.6066 2.81843,-6.71697 12.94003,-7.06464 18.18274,-12.12183 3.73281,-3.60072 7.57656,-7.66662 9.09137,-12.62691 1.5743,-5.15508 2.39995,-11.62216 -0.50507,-16.16244 -1.21737,-1.90264 -3.80587,-2.90078 -6.06092,-3.03045 -3.93468,-0.22625 -7.17348,4.19399 -11.11167,4.04061 -2.03275,-0.0792 -4.55298,-0.75547 -5.55584,-2.52538 -3.67538,-6.48656 4.42634,-15.01432 2.52538,-22.22336 -1.16775,-4.42848 -4.25118,-8.60053 -8.08122,-11.11168 -5.19226,-3.40429 -12.56374,-6.68172 -18.18275,-4.04061 -7.01881,3.29905 -9.32716,13.05892 -10.6066,20.70813 -1.37477,8.21915 8.40812,17.98839 3.53553,24.74874 -1.10061,1.52701 -3.74147,1.51129 -5.55584,1.01015 -3.45017,-0.95296 -4.60777,-6.2068 -8.08122,-7.07107 -2.85326,-0.70995 -6.22537,0.26783 -8.58629,2.02031 -2.96794,2.20306 -5.09816,5.92866 -5.55584,9.59644 -1.60356,12.85084 12.8455,24.62015 10.6066,37.37565 -0.89664,5.10834 -5.02865,9.40303 -9.09137,12.62691 -5.14338,4.08141 -13.78586,2.6997 -18.18275,7.57614 -2.3541,2.61085 -4.52255,6.91846 -3.03046,10.10153 4.19417,8.94742 20.25272,4.66352 27.27412,11.61675 2.0892,2.06891 0.61076,7.77987 3.53554,8.08122 z"
       id="path3151"
       inkscape:connector-curvature="0" />
    <path
       style="fill:none;stroke:#000000;stroke-width:1px;stroke-linecap:butt;stroke-linejoin:miter;stroke-opacity:1"
       d="m 592.45447,284.14117 c 5.02469,-4.08688 -3.01766,-12.71602 -3.03046,-19.1929 -0.0263,-13.28646 5.78198,-26.1124 6.06092,-39.39595 0.12803,-6.09687 2.44463,-14.02913 -2.02031,-18.18274 -3.20733,-2.98369 -9.26759,-2.56804 -13.13198,-0.50508 -2.26707,1.21025 -1.79722,5.31239 -4.04061,6.56599 -3.08636,1.72464 -8.22245,2.61072 -10.6066,0 -2.50797,-2.74631 0.65675,-7.40933 1.01015,-11.11167 0.80387,-8.42165 5.54191,-17.34997 2.52538,-25.25382 -1.95447,-5.12107 -6.6471,-10.84198 -12.12183,-11.11168 -4.20387,-0.20709 -7.40464,4.3447 -10.10153,7.57615 -1.68852,2.0232 -1.6303,5.25048 -3.53553,7.07107 -2.39761,2.29111 -5.91221,4.98437 -9.09137,4.04061 -7.11797,-2.11304 -5.37714,-15.58306 -12.12183,-18.68783 -4.6286,-2.13068 -11.03648,-0.98366 -15.15229,2.02031 -2.85903,2.08669 -3.85153,6.12564 -4.54569,9.59645 -0.69416,3.4708 -0.38986,7.18207 0.50508,10.6066 1.33259,5.09922 5.86017,9.01267 7.07107,14.14214 0.58021,2.45782 0.83592,5.19312 0,7.57614 -1.78416,5.08626 -8.95219,7.36076 -10.10153,12.62691 -0.74008,3.39098 0.33607,7.40831 2.52538,10.10152 3.65726,4.49903 10.04912,6.10499 15.65737,7.57615 5.22134,1.36966 12.13737,-2.58667 16.16244,1.01015 2.16713,1.93656 1.98077,5.7175 1.51523,8.58629 -0.73609,4.53597 -6.81248,7.53315 -6.566,12.12184 0.31812,5.92238 4.87094,11.85139 10.10153,14.64721 10.09767,5.39734 23.09776,-1.63724 34.34519,0.50507 6.54266,1.24619 13.52085,11.27367 18.68782,7.07107 z"
       id="path3149"
       inkscape:connector-curvature="0" />
    <path
       style="fill:none;stroke:#000000;stroke-width:1px;stroke-linecap:butt;stroke-linejoin:miter;stroke-opacity:1"
       d="m 712.5,333.79075 c 4.8625,-1.66533 1.1874,-10.44658 3.57143,-15 6.45213,-12.32335 19.21017,-20.17534 27.85714,-31.07143 1.80664,-2.27656 4.62428,-4.26092 5,-7.14285 0.49177,-3.77202 -0.80997,-8.53615 -3.92857,-10.71429 -4.97756,-3.47651 -12.75367,2.65405 -18.21428,0 -1.90634,-0.92655 -3.36424,-2.95692 -3.92858,-5 -1.50181,-5.43704 0.6242,-11.35335 2.14286,-16.78571 1.57837,-5.64594 6.18119,-10.28843 7.14286,-16.07143 0.88225,-5.30541 1.69908,-11.6961 -1.42857,-16.07143 -2.04552,-2.86152 -6.13355,-4.52486 -9.64286,-4.28571 -5.86691,0.39981 -9.12552,9.01924 -15,9.28571 -2.1274,0.0965 -4.47246,-1.12711 -5.71429,-2.85714 -2.52312,-3.51504 0.064,-8.94558 -1.78571,-12.85715 -1.80072,-3.80804 -4.53909,-8.06753 -8.57143,-9.28571 -4.3395,-1.31097 -9.43853,0.70559 -13.21428,3.21429 -2.83593,1.88426 -5.12822,4.94269 -6.07143,8.21428 -3.07568,10.66823 5.18329,22.44067 2.5,33.21429 -0.64655,2.59596 -1.67382,6.20693 -4.28572,6.78571 -3.86884,0.85732 -6.18092,-5.37141 -10,-6.42857 -3.67325,-1.0168 -8.21811,-1.69702 -11.42857,0.35714 -2.46651,1.57816 -3.63747,4.94347 -3.92857,7.85715 -0.58855,5.89082 1.09283,12.40519 4.64286,17.14285 5.60741,7.48333 19.03499,6.67441 23.92857,14.64286 1.56246,2.54423 2.68414,6.6849 0.71428,8.92857 -1.57283,1.79145 -5.18249,-0.99936 -7.14285,0.35714 -2.45521,1.69892 -3.45348,5.23092 -3.57143,8.21429 -0.15914,4.02517 1.48313,8.22745 3.92857,11.42857 2.18488,2.86004 5.58777,4.73256 8.92857,6.07143 6.04952,2.42442 13.33792,0.55004 19.28572,3.21429 7.10945,3.18459 10.84441,17.16691 18.21428,14.64285 z"
       id="path3147"
       inkscape:connector-curvature="0" />
    <path
       style="fill:none;stroke:#000000;stroke-width:1px;stroke-linecap:butt;stroke-linejoin:miter;stroke-opacity:1"
       d="m 638.21429,368.43361 c 7.89739,-4.08121 1.09031,-17.89224 3.57143,-26.42857 2.30441,-7.92834 8.66615,-14.41857 10.35714,-22.5 1.29247,-6.17687 1.50157,-12.89786 -0.35714,-18.92857 -1.08924,-3.5341 -2.92401,-7.34406 -6.07143,-9.28572 -3.56925,-2.20189 -8.6727,-3.14311 -12.5,-1.42857 -2.26074,1.01276 -1.99424,5.13028 -4.28572,6.07143 -3.13217,1.28644 -7.35254,0.32531 -10,-1.78571 -3.33662,-2.66053 -4.4918,-7.5486 -5,-11.78572 -0.87634,-7.30647 5.55602,-14.69953 3.57143,-21.78571 -1.48,-5.28449 -5.75912,-10.14149 -10.71428,-12.5 -4.08613,-1.94488 -9.57845,-2.48674 -13.57143,-0.35715 -3.7301,1.98939 -2.89929,9.05087 -6.78572,10.71429 -2.79029,1.19427 -6.15778,-0.54686 -8.92857,-1.78571 -4.34717,-1.94366 -6.86875,-7.19893 -11.42857,-8.57143 -5.82382,-1.75296 -13.52191,-2.79785 -18.21429,1.07143 -4.07668,3.36158 -5.06665,10.19727 -3.92857,15.35714 1.62189,7.35343 11.26165,10.60373 14.28572,17.5 0.67612,1.54186 1.47406,3.4976 0.71428,5 -2.49978,4.94309 -10.92194,3.75373 -14.64285,7.85714 -2.07919,2.29292 -3.70859,5.47923 -3.57143,8.57143 0.23833,5.37298 3.04318,11.27531 7.5,14.28571 8.82476,5.96076 23.42815,-3.38557 31.78571,3.21429 2.27514,1.79665 4.10441,5.59732 2.85714,8.21429 -1.96043,4.11329 -9.10061,2.06391 -12.85714,4.64285 -1.94813,1.33743 -4.13203,3.04999 -4.64286,5.35715 -0.93677,4.23093 1.06629,8.9641 3.57143,12.5 2.0241,2.85693 5.26982,4.9059 8.57143,6.07142 14.39709,5.08238 31.00969,-1.25153 45.71429,2.85715 5.43619,1.51895 9.98559,10.44849 15,7.85714 z"
       id="path3145"
       inkscape:connector-curvature="0" />
    <path
       style="fill:none;stroke:#000000;stroke-width:1px;stroke-linecap:butt;stroke-linejoin:miter;stroke-opacity:1"
       d="m 516.07143,367.00504 c -4.16001,3.25788 -9.36434,-5.83328 -14.64286,-6.07143 -7.97429,-0.35978 -16.06288,2.95277 -22.85714,7.14286 -4.22794,2.60741 -5.80606,8.72388 -10.35714,10.71428 -4.90947,2.14714 -11.20395,2.59787 -16.07143,0.35715 -3.0739,-1.41506 -5.02109,-4.77977 -6.42857,-7.85715 -1.15594,-2.52739 -2.55918,-5.67545 -1.42858,-8.21428 2.45897,-5.52175 10.90976,-5.54933 15.35715,-9.64286 1.31388,-1.20934 3.12228,-2.50237 3.21428,-4.28571 0.0715,-1.38648 -0.92375,-2.90719 -2.14285,-3.57143 -9.62255,-5.24297 -22.59819,4.92317 -32.85715,1.07143 -4.57357,-1.71715 -8.42621,-5.68365 -10.71428,-10 -1.80587,-3.4067 -3.94722,-8.23566 -1.78572,-11.42858 4.1768,-6.16988 16.74232,0.48427 21.78572,-5 1.13962,-1.23924 1.53672,-3.53097 0.71428,-5 -2.34432,-4.18739 -9.49517,-2.68142 -13.21428,-5.71428 -3.37852,-2.75512 -6.83163,-6.40634 -7.5,-10.71429 -0.30595,-1.97201 0.30753,-4.37361 1.78571,-5.71428 2.16179,-1.96068 6.13695,-0.17609 8.57143,-1.78572 2.78229,-1.8396 4.68502,-5.0416 5.71429,-8.21428 1.87391,-5.77624 -1.86853,-12.56426 0.35714,-18.21429 1.69942,-4.31409 5.02796,-8.52111 9.28571,-10.35714 4.26476,-1.83905 10.13418,-2.32107 13.92858,0.35714 2.70936,1.91235 3.18962,5.99149 3.57142,9.28572 0.70555,6.0876 -3.69249,12.20307 -2.5,18.21428 0.32182,1.62225 0.99579,3.59825 2.5,4.28572 1.76259,0.80556 4.16012,0.0863 5.71429,-1.07143 3.54404,-2.63993 2.3675,-9.37525 6.07143,-11.78572 3.39834,-2.2116 8.59701,-2.68071 12.14286,-0.71428 2.60898,1.44687 3.72962,4.9261 4.28571,7.85714 0.71562,3.77188 -0.2734,7.76731 -1.42857,11.42857 -1.37804,4.36762 -5.60291,7.63805 -6.42857,12.14286 -0.5191,2.8322 -0.62322,6.24356 1.07143,8.57143 1.15979,1.59315 3.4247,2.88589 5.35714,2.5 3.63593,-0.72606 4.10762,-6.71798 7.5,-8.21429 3.81229,-1.68152 8.43369,-0.90897 12.5,0 4.36566,0.97589 9.3024,2.25841 12.14286,5.71429 2.80504,3.41278 3.44087,8.44534 3.21428,12.85714 -0.44813,8.72533 -8.07116,15.9482 -8.92857,24.64286 -0.54361,5.51249 6.86104,13.01325 2.5,16.42857 z"
       id="path3143"
       inkscape:connector-curvature="0" />
    <path
       style="fill:none;stroke:#000000;stroke-width:1px;stroke-linecap:butt;stroke-linejoin:miter;stroke-opacity:1"
       d="m 357.5,345.21932 c 3.3251,6.91796 -7.21312,13.68098 -9.28571,21.07143 -2.69143,9.5971 -1.08506,20.08972 -3.92858,29.64286 -1.80768,6.0731 -3.41405,13.00668 -8.21428,17.14286 -3.67998,3.17091 -9.14619,5.13763 -13.92857,4.28571 -3.09423,-0.5512 -5.90088,-3.00856 -7.5,-5.71428 -2.87823,-4.87 0.33621,-11.89113 -2.5,-16.78572 -1.44486,-2.49347 -3.94638,-5.85025 -6.78572,-5.35714 -3.31959,0.57651 -4.31861,5.3662 -5.35714,8.57143 -1.61832,4.99462 0.69389,10.7697 -1.07143,15.71428 -1.86592,5.22636 -4.9307,10.64022 -9.64286,13.57143 -6.34832,3.94899 -14.95655,5.63367 -22.14285,3.57143 -2.4328,-0.69813 -4.75767,-2.65676 -5.71429,-5 -1.17335,-2.8741 1.8603,-6.4006 0.71429,-9.28571 -1.30666,-3.28953 -4.53056,-5.93365 -7.85715,-7.14286 -8.2863,-3.01205 -19.06119,5.91467 -26.42857,1.07143 -2.77112,-1.82171 -3.92491,-5.98833 -3.57143,-9.28572 0.48568,-4.53063 3.53274,-9.1873 7.5,-11.42857 5.39382,-3.04719 12.79375,1.52114 18.57143,-0.71428 2.75786,-1.06703 6.52559,-2.76867 6.78572,-5.71429 0.16358,-1.85237 -1.87256,-3.52947 -3.57143,-4.28571 -2.82982,-1.25968 -6.50685,1.72557 -9.28572,0.35714 -4.05982,-1.99922 -7.37768,-6.57153 -7.85714,-11.07143 -0.38423,-3.60615 1.617,-7.54442 4.28572,-10 3.60141,-3.31377 9.04178,-4.37738 13.92857,-4.64286 11.79774,-0.64093 22.92023,8.97564 34.64285,7.5 2.90526,-0.36571 6.39154,-1.39356 7.85715,-3.92857 1.0147,-1.75509 0.57082,-4.26897 -0.35715,-6.07143 -2.17013,-4.21519 -7.99677,-5.31972 -11.07142,-8.92857 -2.48978,-2.92236 -5.18965,-6.19685 -5.71429,-10 -0.53661,-3.88993 -0.0447,-8.78302 2.85714,-11.42857 3.47137,-3.1648 9.29909,-2.93928 13.92857,-2.14286 14.12039,2.42916 24.53291,15.08922 37.85715,20.35715 7.33108,2.89845 19.44207,-1.03372 22.85714,6.07142 z"
       id="path3141"
       inkscape:connector-curvature="0" />
    <path
       style="fill:none;stroke:#000000;stroke-width:1px;stroke-linecap:butt;stroke-linejoin:miter;stroke-opacity:1"
       d="m 497.5,247.36218 c 6.84058,-5.58287 1.58821,-17.60117 1.78572,-26.42857 0.1172,-5.23814 1.77337,-10.92757 -0.35715,-15.71429 -2.32864,-5.23185 -6.83042,-10.97911 -12.5,-11.78571 -5.42928,-0.77241 -9.25262,6.49051 -14.64285,7.5 -3.41149,0.63891 -7.92149,1.40123 -10.35715,-1.07143 -5.70296,-5.78959 0.68449,-16.66671 -2.14285,-24.28571 -1.98848,-5.35847 -5.09456,-10.99534 -10.00001,-13.92857 -4.73984,-2.83421 -11.30648,-4.20758 -16.42857,-2.14286 -4.94898,1.99494 -7.15546,7.98549 -10,12.5 -2.04367,3.24347 -1.61041,8.56623 -5,10.35714 -2.12873,1.12472 -5.05488,0.12725 -7.14285,-1.07143 -6.09488,-3.49901 -7.71264,-12.05565 -13.21429,-16.42857 -3.0011,-2.38539 -6.6556,-4.00235 -10.35714,-5 -4.49613,-1.2118 -9.72397,-3.07269 -13.92857,-1.07143 -3.39922,1.61793 -5.37041,5.67288 -6.42858,9.28572 -0.93754,3.20098 -0.97407,6.94171 0.35715,10 2.55338,5.866 11.3642,7.56661 13.57143,13.57143 1.52466,4.14787 0.64895,9.14368 -1.07143,13.21428 -1.47795,3.49699 -6.04314,5.0656 -7.5,8.57143 -1.32796,3.19564 -2.22247,7.24249 -0.71429,10.35714 1.19443,2.46671 4.16746,3.83287 6.78572,4.64286 7.2787,2.25176 15.40114,1.56779 22.85714,0 6.36393,-1.33816 11.6054,-9.64765 17.85714,-7.85714 3.04737,0.87277 5.18932,4.6917 5.35714,7.85714 0.29326,5.53147 -7.42936,9.12017 -7.85714,14.64286 -0.36055,4.65479 0.93587,10.3761 4.64286,13.21428 7.67745,5.87807 19.30222,3.05294 28.92857,2.14286 8.22236,-0.77734 16.35068,-3.1442 23.92857,-6.42857 3.72824,-1.61587 6.38357,-5.5792 10.35715,-6.42857 4.3466,-0.92911 9.77075,4.59611 13.21428,1.78571 z"
       id="path3139"
       inkscape:connector-curvature="0" />
    <path
       style="fill:none;stroke:#000000;stroke-width:1px;stroke-linecap:butt;stroke-linejoin:miter;stroke-opacity:1"
       d="m 412.14286,254.50504 c -1.95529,6.21246 -11.81377,5.79316 -16.78572,10 -7.86634,6.65582 -11.79027,17.34411 -20,23.57143 -3.86209,2.92951 -8.38367,5.66779 -13.21428,6.07143 -4.54696,0.37994 -10.15118,-0.18963 -13.21429,-3.57143 -3.40291,-3.75695 -4.17786,-10.21678 -2.5,-15 1.5348,-4.37537 8.59973,-4.99492 10.35714,-9.28572 0.72335,-1.76608 1.00509,-4.37764 -0.35714,-5.71428 -1.95624,-1.91949 -5.57696,-1.10272 -8.21428,-0.35715 -9.81795,2.77555 -15.63639,14.04404 -25.35715,17.14286 -4.99193,1.59135 -10.63906,1.65866 -15.71428,0.35714 -5.06342,-1.29849 -11.08372,-3.2598 -13.57143,-7.85714 -2.09933,-3.87961 -1.31588,-9.29803 0.71428,-13.21428 1.32631,-2.5585 4.25876,-3.9717 6.78572,-5.35715 2.542,-1.3937 6.40642,-0.5909 8.21428,-2.85714 2.01681,-2.52817 2.99142,-7.0404 1.07143,-9.64286 -4.893,-6.63224 -17.39091,-0.12735 -24.28571,-4.64285 -4.58549,-3.0031 -9.72639,-8.10781 -9.28572,-13.57143 0.27755,-3.44121 4.0413,-5.98366 7.14286,-7.5 7.52385,-3.67839 18.04214,2.16124 25,-2.5 1.68138,-1.1264 2.90053,-3.3338 2.85714,-5.35715 -0.11557,-5.38887 -7.05595,-8.66439 -8.21428,-13.92857 -0.51421,-2.33692 -0.60334,-5.14548 0.71428,-7.14285 2.17122,-3.29133 6.44724,-5.20473 10.35715,-5.71429 4.8673,-0.63433 10.38444,0.59266 14.28571,3.57143 6.18512,4.72257 6.23294,14.56371 11.42857,20.35714 3.41867,3.81202 7.47487,9.91185 12.5,8.92857 6.77424,-1.32554 5.21109,-13.85255 11.07143,-17.5 2.84617,-1.77144 6.83875,-2.1873 10,-1.07143 9.04924,3.19424 15.02165,12.38066 20.35714,20.35715 4.65867,6.96466 6.31298,15.52522 9.64286,23.21428 2.64681,6.11178 10.21383,11.86124 8.21429,18.21429 z"
       id="path3137"
       inkscape:connector-curvature="0" />
    <path
       style="fill:none;stroke:#000000;stroke-width:1px;stroke-linecap:butt;stroke-linejoin:miter;stroke-opacity:1"
       d="m 292.5,278.07647 c 4.07126,-9.17398 -7.76748,-18.51192 -11.42857,-27.85715 -3.84744,-9.8209 -3.97914,-21.83566 -11.07143,-29.64285 -3.47266,-3.8227 -8.82653,-5.98474 -13.92857,-6.78572 -4.98965,-0.78333 -10.94031,-0.86199 -15,2.14286 -3.38172,2.50304 -3.57468,7.61752 -5.35714,11.42857 -0.83486,1.785 -0.79847,4.36316 -2.5,5.35714 -1.34026,0.78294 -3.30172,0.42429 -4.64286,-0.35714 -12.89502,-7.51338 -13.78981,-27.29075 -25,-37.14286 -3.39919,-2.98739 -7.61923,-6.19698 -12.14286,-6.07142 -3.83769,0.10652 -7.94205,2.47328 -10,5.71428 -1.60046,2.5205 -1.14177,5.97363 -0.71428,8.92857 0.47482,3.28212 3.73133,5.97329 3.57142,9.28572 -0.15403,3.19067 -1.64855,6.76881 -4.28571,8.57143 -6.41544,4.38525 -15.84789,-0.33192 -23.21429,2.14285 -4.9164,1.65168 -10.69454,3.68108 -13.21428,8.21429 -1.90863,3.43378 -1.5034,8.15618 0,11.78571 1.86841,4.51075 5.80512,8.59165 10.35714,10.35715 9.77737,3.79214 21.50205,-4.81111 31.42857,-1.42858 1.91896,0.6539 4.6364,1.90128 4.64286,3.92858 0.021,6.58535 -12.41078,6.80212 -15,12.85714 -1.73438,4.05593 -1.08321,9.18593 0.71429,13.21428 1.02906,2.30621 3.01405,4.41508 5.35714,5.35715 5.30295,2.13212 11.73423,1.49054 17.14286,-0.35715 7.57057,-2.58626 11.71514,-11.69946 19.28571,-14.28571 5.40863,-1.84769 13.0595,-4.35632 17.14286,-0.35714 1.10567,1.08287 0.63713,3.23247 0,4.64285 -2.74326,6.0726 -12.86847,6.90093 -15,13.21429 -1.16506,3.45079 -0.0297,7.79101 2.14285,10.71429 2.41435,3.24871 6.71303,5.10345 10.71429,5.71428 4.43156,0.67651 9.11648,-0.68222 13.21429,-2.5 9.5546,-4.23841 15.81257,-13.94404 25,-18.92857 6.78544,-3.68136 18.65432,-0.80101 21.78571,-7.85714 z"
       id="path3135"
       inkscape:connector-curvature="0" />
    <path
       style="fill:none;stroke:#000000;stroke-width:1px;stroke-linecap:butt;stroke-linejoin:miter;stroke-opacity:1"
       d="m 153.79573,295.50539 c 6.41726,-4.30345 -3.73692,-15.28669 -3.03046,-22.98097 0.32372,-3.52571 1.43295,-7.08279 3.28299,-10.10153 2.92368,-4.77062 9.57718,-6.76509 11.8693,-11.86929 3.52351,-7.8463 3.11934,-17.30866 1.51522,-25.75889 -0.70944,-3.7372 -2.25536,-7.52496 -4.79822,-10.35406 -2.95309,-3.28551 -6.97844,-6.28914 -11.36422,-6.81853 -3.67435,-0.44351 -7.35114,1.52243 -10.6066,3.28299 -2.78728,1.50737 -4.16657,5.78844 -7.3236,6.06092 -3.38081,0.29179 -7.14806,-2.10861 -8.83884,-5.05077 -4.94945,-8.61265 3.81869,-20.52818 0.25254,-29.7995 -2.01052,-5.22697 -6.37162,-9.83718 -11.36422,-12.37436 -4.68235,-2.37951 -10.7249,-3.57255 -15.657361,-1.76777 -1.957275,0.71616 -2.945517,2.9558 -4.293148,4.54568 -3.690441,4.35382 -5.540241,10.57076 -10.354064,13.63706 -2.68767,1.71199 -6.17739,2.37756 -9.343911,2.02031 -10.066384,-1.1357 -17.449399,-11.84467 -27.526657,-12.87945 -5.077792,-0.52141 -10.520152,0.91352 -14.89975,3.53554 -3.376854,2.02168 -6.587395,5.10392 -7.828682,8.83883 -1.278766,3.84768 -0.969067,8.5831 1.010152,12.12183 1.734132,3.10053 5.492821,4.56678 8.586297,6.31346 7.065167,3.98922 17.972585,2.59478 22.475894,9.34391 0.934445,1.40046 0.96499,3.67117 0,5.05076 -3.235959,4.62625 -11.34771,2.48272 -15.909903,5.80838 -1.551191,1.13076 -3.006118,2.70055 -3.535533,4.54568 -0.91019,3.17222 -0.602572,6.96966 1.010152,9.84899 1.966374,3.51074 5.74434,6.16036 9.596449,7.32361 8.641049,2.60941 17.999948,-1.47298 27.021581,-1.76777 3.533648,-0.11546 7.272673,-1.17683 10.606602,0 3.161248,1.11587 6.885509,3.09645 7.828682,6.31345 0.374465,1.27723 -0.287698,2.88202 -1.262691,3.78808 -4.262394,3.96102 -11.787776,1.55135 -16.920055,4.29314 -1.997821,1.06729 -4.289713,2.41234 -5.050763,4.54569 -1.116062,3.12851 0.138236,6.82623 1.515229,9.84899 1.78282,3.91362 4.604006,7.708 8.333759,9.84899 4.224908,2.42523 9.526968,2.33296 14.394673,2.52538 13.349718,0.52771 26.842528,-6.61105 39.901028,-3.78808 7.77654,1.68112 14.10023,16.3006 20.70813,11.8693 z"
       id="path3133"
       inkscape:connector-curvature="0" />
    <path
       style="fill:none;stroke:#000000;stroke-width:1px;stroke-linecap:butt;stroke-linejoin:miter;stroke-opacity:1"
       d="m 169.70563,329.59804 c 1.89579,-3.44294 -1.94701,-7.68707 -2.02031,-11.61676 -0.2218,-11.89108 7.29904,-23.72809 4.79823,-35.35534 -1.00193,-4.65835 -3.33853,-9.94314 -7.57615,-12.12183 -3.6005,-1.85113 -8.72973,-1.45235 -12.12183,0.75762 -4.29024,2.79511 -5.20846,8.86742 -7.07107,13.63706 -1.0474,2.68212 -0.68777,5.92993 -2.27284,8.33375 -2.01192,3.05116 -5.11004,5.69023 -8.5863,6.81853 -1.84329,0.59828 -4.12618,0.7097 -5.80837,-0.25253 -4.70208,-2.68965 -5.89298,-9.0911 -8.83884,-13.63706 -3.8728,-5.97638 -5.17174,-14.90075 -11.61675,-17.93021 -3.91213,-1.83888 -9.205536,-0.76262 -12.879446,1.51523 -3.929062,2.43605 -5.880408,7.31601 -7.576144,11.61675 -1.253872,3.18008 -0.433386,6.95438 -1.767767,10.10153 -0.893892,2.10825 -1.934344,4.65728 -4.04061,5.55584 -1.719178,0.73342 -3.886648,0.0834 -5.555839,-0.75762 -8.505922,-4.28561 -10.982752,-17.24679 -19.950513,-20.45559 -2.87086,-1.02724 -6.33247,-0.28811 -9.091373,1.01016 -3.285811,1.54622 -6.579851,4.16619 -7.828682,7.57614 -0.872795,2.38318 -0.05681,5.17239 0.757614,7.57614 1.746665,5.15523 9.157972,8.47661 8.586297,13.8896 -0.293894,2.78278 -3.039717,5.65504 -5.808378,6.06092 -5.743933,0.84205 -9.501805,-7.25444 -15.152288,-8.5863 -3.117805,-0.73489 -6.658968,-0.77241 -9.596449,0.50508 -6.223682,2.70663 -12.0510135,7.87158 -14.6472118,14.14213 -1.8035935,4.35619 -1.4727226,9.75434 0.2525381,14.14214 1.6141632,4.10525 4.8934561,7.87602 8.8388347,9.84898 5.139626,2.57017 11.555965,2.72974 17.172593,1.51523 5.857925,-1.26669 9.80254,-7.55789 15.657365,-8.83883 1.980463,-0.43329 4.578446,-0.87778 6.060915,0.50507 1.619292,1.51047 1.617838,4.4366 1.010153,6.566 -1.916799,6.71671 -11.353525,9.30886 -13.63706,15.9099 -1.294632,3.74241 -0.921875,8.17531 0.505077,11.86929 0.947641,2.45318 2.840405,4.63599 5.050762,6.06092 2.128441,1.37212 4.806299,1.74436 7.323606,2.0203 4.943388,0.54188 10.205215,0.88314 14.89975,-0.75761 6.549538,-2.28908 12.537641,-6.7431 16.920055,-12.12183 3.142098,-3.85644 4.221537,-9.0152 6.060916,-13.63706 0.561146,-1.41001 0.387037,-3.27817 1.515229,-4.29315 2.70187,-2.43075 7.25957,-3.9417 10.606606,-2.52538 3.33714,1.41214 6.00574,5.74832 5.55583,9.34391 -0.45821,3.66192 -5.97296,4.63871 -7.82868,7.82868 -1.756009,3.01857 -3.564895,6.69918 -2.777917,10.10153 0.860169,3.71877 3.981287,7.30328 7.576147,8.58629 4.41847,1.57695 9.73701,-0.0898 13.88959,-2.27284 5.16439,-2.71496 8.39036,-8.14159 12.12183,-12.62691 7.29104,-8.76402 11.01441,-20.70011 19.95052,-27.77919 5.35486,-4.24205 15.64522,-1.8444 18.94036,-7.82868 z"
       id="path3131"
       inkscape:connector-curvature="0" />
    <path
       style="fill:none;stroke:#000000;stroke-width:1px;stroke-linecap:butt;stroke-linejoin:miter;stroke-opacity:1"
       d="m 104.55079,449.30111 c -2.21943,7.275 -13.814963,6.47819 -20.203052,10.6066 -4.129753,2.66892 -7.819927,5.96694 -11.616755,9.09138 -3.179711,2.61661 -5.918404,5.79581 -9.343911,8.08122 -4.0711,2.71613 -8.449361,5.14321 -13.131983,6.56599 -5.114991,1.55415 -10.720058,3.3025 -15.909902,2.0203 -3.990186,-0.98581 -8.074664,-3.49541 -10.101526,-7.07106 -2.330582,-4.11145 -3.311065,-10.01402 -1.010152,-14.14214 3.88629,-6.97249 16.637612,-4.57082 21.213203,-11.11168 1.460382,-2.08763 1.975471,-5.21837 1.010153,-7.57614 -0.727319,-1.77646 -2.653657,-3.21145 -4.545687,-3.53554 -5.772297,-0.98875 -11.949095,2.0869 -16.667517,5.55584 -7.190469,5.28637 -7.789585,17.50561 -15.6573644,21.71828 -8.02029637,4.29433 -18.6784746,3.99032 -27.2741186,1.01016 -4.175387,-1.44763 -8.408172,-4.50438 -10.101526,-8.5863 -1.617944,-3.90014 -0.940008,-8.88182 1.010153,-12.62691 2.319744,-4.45483 10.12755,-4.79968 11.616754,-9.59645 0.72682,-2.34111 -0.02077,-5.653 -2.020305,-7.07106 -4.677259,-3.31709 -11.700753,2.72444 -17.172593,1.01015 -5.720897,-1.79231 -11.81281,-5.58762 -14.142136,-11.11168 -1.842075,-4.36854 -1.348362,-10.36362 1.515229,-14.14214 1.095224,-1.44515 3.250374,-1.80448 5.050763,-2.0203 9.456111,-1.13354 19.295845,7.18881 28.284271,4.04061 3.709429,-1.29923 6.5088055,-4.98417 8.0812205,-8.5863 2.9704929,-6.80489 -2.7402748,-16.13886 1.5152288,-22.22335 1.9006718,-2.71757 5.77997074,-3.86075 9.0913729,-4.04061 4.4127129,-0.23967 9.1780498,1.27748 12.6269068,4.04061 6.242108,5.001 8.310966,13.67597 12.121831,20.70812 1.25557,2.31689 1.259968,5.74207 3.535533,7.07107 2.911243,1.70026 7.54418,1.69179 10.101526,-0.50507 6.386665,-5.4864 0.547701,-17.6345 5.050763,-24.74874 1.350649,-2.13385 3.639058,-3.83003 6.060915,-4.54569 4.693377,-1.38689 10.214707,-1.06449 14.647212,1.01015 5.068766,2.37245 8.294277,7.61828 11.616754,12.12184 4.116171,5.5794 8.139943,11.53257 10.101526,18.18274 1.432116,4.85517 -0.392892,10.28864 1.010152,15.15229 2.651679,9.19204 16.428671,16.1033 13.637061,25.25381 z"
       id="path3129"
       inkscape:connector-curvature="0" />
    <path
       style="fill:none;stroke:#000000;stroke-width:1px;stroke-linecap:butt;stroke-linejoin:miter;stroke-opacity:1"
       d="m 108.5914,461.42294 c 8.1932,5.62606 -2.09038,19.91951 -1.01015,29.7995 0.66128,6.04821 2.21541,12.05735 4.54568,17.67767 3.67149,8.85515 11.89695,15.56563 14.64721,24.74874 2.03099,6.78148 3.67626,14.65536 1.01016,21.2132 -1.301,3.20008 -4.27704,6.04685 -7.57615,7.07107 -3.25174,1.00952 -6.93494,-0.26395 -10.10152,-1.51523 -5.51589,-2.17961 -8.94591,-8.46725 -14.647214,-10.10152 -3.564178,-1.02167 -8.272936,-1.88003 -11.111678,0.50507 -2.376812,1.99699 -1.803355,5.99459 -2.020306,9.09138 -0.448492,6.40185 2.635664,12.87392 1.515229,19.19289 -0.776016,4.37654 -2.488548,8.90501 -5.555839,12.12184 -3.793297,3.97823 -9.200315,6.83673 -14.647212,7.57614 -3.239226,0.43972 -7.008658,-0.023 -9.596449,-2.02031 -2.682167,-2.07016 -1.888126,-6.98971 -4.545686,-9.09137 -2.306246,-1.82383 -5.749847,-2.79469 -8.586297,-2.0203 -5.398913,1.47397 -7.405773,8.6035 -12.12183,11.61675 -3.503991,2.23882 -7.459129,4.61202 -11.616755,4.54569 C 12.044517,601.75234 6.1884565,599.81438 3.0304576,595.77323 -0.85530308,590.80079 -1.1101943,583.29763 0,577.08541 c 0.78250741,-4.37861 3.7404834,-8.18148 6.5659915,-11.61675 2.9580113,-3.59637 9.2395725,-4.63998 10.6066015,-9.09138 0.563532,-1.835 -0.04409,-4.32273 -1.515229,-5.55584 -5.7006254,-4.77825 -16.07963578,2.17297 -22.2233555,-2.0203 -2.4875195,-1.6978 -4.2702535,-5.0783 -4.0406105,-8.08122 0.377561,-4.93716 4.7488641,-8.99257 8.5862969,-12.12183 5.8423825,-4.7642 13.4049521,-7.22196 20.7081271,-9.09138 9.33241,-2.38885 20.05908,1.54683 28.789348,-2.52538 2.805088,-1.30842 5.789577,-3.56971 6.565991,-6.56599 0.614898,-2.37297 -0.104991,-5.54115 -2.020305,-7.07107 -4.742895,-3.78854 -13.301706,2.59866 -18.182746,-1.01015 -2.741149,-2.02668 -4.1095,-6.23611 -3.535534,-9.59645 1.067036,-6.24707 6.942264,-10.99529 12.121831,-14.64721 6.44212,-4.54209 14.501484,-6.49875 22.223356,-8.08122 8.920008,-1.82801 18.40512,0.54609 27.274119,-1.51523 5.878456,-1.36626 11.692388,-10.48736 16.667518,-7.07107 z"
       id="path3127"
       inkscape:connector-curvature="0" />
    <path
       style="fill:none;stroke:#000000;stroke-width:1px;stroke-linecap:butt;stroke-linejoin:miter;stroke-opacity:1"
       d="m 289.91378,462.93817 c 4.14591,6.40337 -6.9695,13.75817 -8.5863,21.21321 -1.67862,7.74009 1.01913,16.08294 -1.01015,23.73858 -1.60131,6.04109 -3.25028,13.41393 -8.5863,16.66752 -4.4561,2.71706 -11.51332,3.17272 -15.65736,0 -5.12358,-3.92266 -2.00596,-12.99857 -5.05076,-18.68782 -0.84448,-1.57791 -1.81164,-3.55987 -3.53554,-4.04061 -3.74401,-1.04407 -8.2655,0.88845 -11.11167,3.53553 -1.99167,1.85235 -2.48509,4.91146 -3.03046,7.57614 -1.45198,7.09432 1.24047,14.69043 -0.50508,21.71828 -1.17971,4.74969 -3.21281,9.56724 -6.56599,13.13199 -5.06502,5.38461 -12.05347,9.19409 -19.1929,11.11167 -5.20307,1.3975 -11.51913,2.73214 -16.16244,0 -2.98786,-1.75807 -4.59771,-5.65438 -5.05076,-9.09137 -0.81645,-6.19387 8.2349,-13.14089 4.54568,-18.18274 -1.5938,-2.17816 -5.53942,-1.41274 -8.08122,-0.50508 -6.0583,2.16337 -8.29348,10.45308 -14.14213,13.13198 -5.54429,2.53949 -12.65521,4.59607 -18.18275,2.02031 -4.95198,-2.30756 -9.10983,-8.17386 -9.09137,-13.63706 0.0233,-6.91088 6.18002,-12.90614 11.61675,-17.1726 3.81343,-2.99258 10.16547,-1.6676 13.63706,-5.05076 1.94792,-1.8983 3.99707,-5.03377 3.03046,-7.57614 -2.27438,-5.98208 -13.43053,-3.39447 -17.17259,-8.5863 -2.08825,-2.89729 -3.12805,-7.42008 -1.51523,-10.6066 2.41504,-4.77151 8.95513,-6.27429 14.14213,-7.57614 10.12424,-2.54102 20.90275,-0.73995 31.31473,0 4.74993,0.33757 9.6246,3.52615 14.14214,2.0203 1.12938,-0.37646 2.26625,-1.36345 2.52538,-2.52538 1.40268,-6.28947 -6.2389,-11.74707 -6.56599,-18.18275 -0.17617,-3.46633 -0.0368,-7.76016 2.52538,-10.10152 4.02526,-3.67843 10.73058,-3.00339 16.16244,-2.52538 18.08555,1.59156 33.66809,14.35974 51.51778,17.67767 4.4722,0.8313 11.16484,-3.31327 13.63706,0.50507 z"
       id="path3125"
       inkscape:connector-curvature="0" />
    <path
       style="fill:none;stroke:#000000;stroke-width:1px;stroke-linecap:butt;stroke-linejoin:miter;stroke-opacity:1"
       d="m 277.85714,232.71932 c -7.14854,1.66782 -14.59673,-1.73046 -21.78571,-3.21428 -5.42989,-1.12074 -12.69361,0.11089 -16.07143,-4.28572 -1.23298,-1.60486 -0.60844,-4.14124 0,-6.07142 0.87376,-2.77187 4.89786,-4.23833 5,-7.14286 0.0488,-1.38747 -1.08354,-2.67405 -2.14286,-3.57143 -6.44358,-5.45853 -17.76195,-3.15667 -23.57143,-9.28571 -3.62573,-3.82516 -7.40138,-10.3084 -5,-15 2.72777,-5.32927 13.59666,-0.53363 17.14286,-5.35715 0.84619,-1.15099 0.27563,-2.88398 0,-4.28571 -1.63792,-8.32968 -9.01063,-15.10582 -9.64286,-23.57143 -0.37416,-5.01008 -0.57132,-11.80058 3.57143,-14.64286 5.34526,-3.66731 13.83366,-1.00657 19.28572,2.5 5.3067,3.41307 4.93387,12.31052 10,16.07143 2.57377,1.91067 6.27163,3.591 9.28571,2.5 3.69572,-1.33773 3.15984,-8.126 6.78572,-9.64286 2.67215,-1.11788 6.04866,0.005 8.57142,1.42858 2.86778,1.61793 5.34052,4.39227 6.42858,7.5 2.2437,6.40847 0.33388,13.64864 -0.71429,20.35714 -0.74469,4.76617 -5.79166,9.47887 -3.92857,13.92857 1.04946,2.50648 4.5079,4.59248 7.14286,3.92857 4.67495,-1.17791 3.32472,-10.49976 7.85714,-12.14286 3.3984,-1.23199 7.57757,0.90325 10.35714,3.21429 3.9309,3.26831 7.1171,8.45937 7.14286,13.57143 0.0249,4.95152 -3.52018,9.49214 -6.78572,13.21428 -7.73127,8.81229 -17.51215,17.33644 -28.92857,20 z"
       id="path3051"
       inkscape:connector-curvature="0" />
    <path
       style="fill:none;stroke:#000000;stroke-width:1px;stroke-linecap:butt;stroke-linejoin:miter;stroke-opacity:1"
       d="m 492.44937,509.40519 c -1.74136,2.70434 -0.74789,6.90292 1.01015,9.59645 2.22567,3.40999 6.53611,5.94793 10.6066,6.06091 3.01053,0.0836 5.90328,-1.9605 8.08122,-4.04061 4.74203,-4.52902 9.11476,-10.63295 9.59645,-17.17259 0.38358,-5.20773 -1.46899,-11.39679 -5.55584,-14.64721 -2.92567,-2.32689 -7.62028,-2.85092 -11.11168,-1.51523 -4.12748,1.57903 -7.85257,5.74364 -8.58629,10.10152 -0.53985,3.20642 4.91778,6.14826 3.53553,9.09138 -1.13162,2.40948 -6.13498,0.28725 -7.57614,2.52538 z"
       id="path3054"
       inkscape:connector-curvature="0" />
    <path
       style="fill:none;stroke:#000000;stroke-width:1px;stroke-linecap:butt;stroke-linejoin:miter;stroke-opacity:1"
       d="m 453.05342,516.98133 c 3.29393,2.03576 8.00154,1.38729 11.61675,0 6.34405,-2.43444 12.2336,-7.50071 15.15229,-13.63706 2.8962,-6.08908 4.29591,-14.31504 1.01015,-20.20305 -1.87263,-3.35571 -6.27192,-5.23693 -10.10152,-5.55584 -3.55515,-0.29606 -7.35962,1.25328 -10.10153,3.53554 -3.12974,2.60506 -6.4572,6.55388 -6.06091,10.6066 0.32522,3.32596 7.51024,4.37049 6.56599,7.57614 -1.18926,4.03746 -9.71808,0.0805 -12.12183,3.53554 -1.34953,1.93976 -0.11948,4.79207 0.50507,7.07107 0.69649,2.54152 1.29388,5.68564 3.53554,7.07106 z"
       id="path3056"
       inkscape:connector-curvature="0" />
    <path
       style="fill:none;stroke:#000000;stroke-width:1px;stroke-linecap:butt;stroke-linejoin:miter;stroke-opacity:1"
       d="m 564.67527,737.19459 c 1.57367,-5.38124 -7.25216,-9.51594 -12.6269,-11.11168 -8.97017,-2.66321 -18.89641,1.09904 -27.7792,4.04061 -9.08185,3.00749 -17.61811,7.87329 -25.25381,13.63706 -7.50692,5.66656 -12.50161,14.14698 -19.69798,20.20305 -5.46668,4.60045 -11.63533,8.30884 -17.67767,12.12183 -6.25175,3.94514 -14.89875,5.0943 -19.19289,11.11168 -5.0826,7.12223 -5.9531,17.05574 -5.05077,25.75889 0.49015,4.72763 2.36558,9.60878 5.55584,13.13198 1.41595,1.56372 3.44644,3.05376 5.55584,3.03046 18.25009,-0.20156 33.7737,-15.21918 47.47717,-27.27412 13.17193,-11.58735 19.8441,-29.10147 31.81981,-41.92133 7.16805,-7.67332 14.21592,-16.28324 23.73858,-20.70813 4.0164,-1.86629 11.88889,2.23049 13.13198,-2.0203 z"
       id="path3058"
       inkscape:connector-curvature="0" />
    <path
       style="fill:none;stroke:#000000;stroke-width:1px;stroke-linecap:butt;stroke-linejoin:miter;stroke-opacity:1"
       d="m 449.01281,829.62355 c -1.34106,1.80192 -2.26222,4.44765 -1.51523,6.56599 0.99686,2.82693 4.21785,4.63694 7.07107,5.55584 11.228,3.61607 23.76061,0.65418 35.35533,-1.51523 9.78615,-1.83102 19.33426,-5.23543 28.28428,-9.59645 15.19595,-7.40444 30.1925,-16.11411 42.4264,-27.7792 12.04002,-11.48022 24.5907,-24.4489 29.29443,-40.4061 1.76386,-5.98381 2.08088,-13.26909 -1.01016,-18.68782 -2.70697,-4.74544 -8.28494,-7.99513 -13.63706,-9.09137 -7.21388,-1.47757 -14.98465,1.0604 -21.71827,4.04061 -10.43827,4.61984 -19.36656,12.47581 -27.27412,20.70812 -12.22989,12.73216 -17.2651,31.53488 -30.30458,43.43656 -13.31059,12.14913 -36.21259,12.312 -46.97209,26.76905 z"
       id="path3060"
       inkscape:connector-curvature="0" />
    <path
       style="fill:none;stroke:#000000;stroke-width:1px;stroke-linecap:butt;stroke-linejoin:miter;stroke-opacity:1"
       d="m 343.45187,737.69966 c 6.71385,-3.17089 14.84948,2.38495 22.22335,1.51523 5.60556,-0.66116 10.96829,-7.25988 16.16244,-5.05076 2.42502,1.03138 3.58257,4.43626 3.53554,7.07107 -0.0753,4.21839 -3.44404,7.80224 -6.06092,11.11168 -9.68679,12.25039 -22.67487,21.53384 -34.85026,31.31473 -11.94685,9.59731 -23.22155,20.89563 -37.37565,26.76904 -5.67529,2.35503 -12.88529,6.14367 -18.18274,3.03046 -2.1578,-1.2681 -2.49876,-4.56838 -2.52538,-7.07107 -0.0453,-4.25894 1.70696,-8.55887 4.04061,-12.12183 7.44624,-11.3687 20.15846,-18.23254 30.30457,-27.27412 5.69929,-5.07885 13.09781,-8.69685 17.1726,-15.15229 1.96269,-3.10938 1.43348,-7.29449 3.03045,-10.6066 0.62901,-1.30456 1.21582,-2.91704 2.52539,-3.53554 z"
       id="path3062"
       inkscape:connector-curvature="0" />
    <path
       style="fill:none;stroke:#000000;stroke-width:1px;stroke-linecap:butt;stroke-linejoin:miter;stroke-opacity:1"
       d="m 297.995,786.18699 c -3.78841,-4.6158 -8.01455,-9.60554 -13.63706,-11.61676 -8.56166,-3.06258 -18.51688,-1.94282 -27.27412,0.50508 -8.06489,2.25437 -15.81114,6.69139 -21.71828,12.62691 -5.47981,5.50613 -9.15031,12.83674 -11.61675,20.20305 -6.03348,18.01966 -11.74765,38.15005 -7.07107,56.56854 3.41487,13.44931 12.9358,25.79787 24.24366,33.84011 6.29471,4.47685 14.50978,6.15821 22.22336,6.56599 8.37588,0.44279 17.00052,-1.33375 24.74874,-4.54569 7.93788,-3.29057 15.70015,-8.05599 21.2132,-14.64721 6.52581,-7.80204 10.78008,-17.77683 12.62691,-27.77919 1.99074,-10.78178 1.06632,-22.30938 -2.02031,-32.82996 -4.18007,-14.24752 -12.2983,-27.41355 -21.71828,-38.89087 z"
       id="path3064"
       inkscape:connector-curvature="0" />
  </g>
</svg>
