<?xml version="1.0" encoding="UTF-8" standalone="no"?>
<!-- Created with Inkscape (http://www.inkscape.org/) -->

<svg
   xmlns:dc="http://purl.org/dc/elements/1.1/"
   xmlns:cc="http://creativecommons.org/ns#"
   xmlns:rdf="http://www.w3.org/1999/02/22-rdf-syntax-ns#"
   xmlns:svg="http://www.w3.org/2000/svg"
   xmlns="http://www.w3.org/2000/svg"
   xmlns:sodipodi="http://sodipodi.sourceforge.net/DTD/sodipodi-0.dtd"
   xmlns:inkscape="http://www.inkscape.org/namespaces/inkscape"
   width="137.24368mm"
   height="108.76882mm"
   viewBox="0 0 486.29665 385.40138"
   id="svg4145"
   version="1.1"
   inkscape:version="0.91 r13725"
   sodipodi:docname="cartoon-owl.svg">
  <defs
     id="defs4147" />
  <sodipodi:namedview
     id="base"
     pagecolor="#ffffff"
     bordercolor="#666666"
     borderopacity="1.0"
     inkscape:pageopacity="0.0"
     inkscape:pageshadow="2"
     inkscape:zoom="0.98994949"
     inkscape:cx="96.757706"
     inkscape:cy="70.053242"
     inkscape:document-units="px"
     inkscape:current-layer="layer1"
     showgrid="false"
     inkscape:window-width="1855"
     inkscape:window-height="1056"
     inkscape:window-x="65"
     inkscape:window-y="24"
     inkscape:window-maximized="1"
     fit-margin-top="0"
     fit-margin-left="0"
     fit-margin-right="0"
     fit-margin-bottom="0" />
  <metadata
     id="metadata4150">
    <rdf:RDF>
      <cc:Work
         rdf:about="">
        <dc:format>image/svg+xml</dc:format>
        <dc:type
           rdf:resource="http://purl.org/dc/dcmitype/StillImage" />
        <dc:title></dc:title>
      </cc:Work>
    </rdf:RDF>
  </metadata>
  <g
     inkscape:label="Calque 1"
     inkscape:groupmode="layer"
     id="layer1"
     transform="translate(-188.00475,-219.88661)">
    <path
       id="c0"
       style="fill:#6b460c;fill-opacity:1;stroke:#000000;stroke-width:1;stroke-linecap:round;stroke-miterlimit:4;stroke-dasharray:none;stroke-opacity:1"
       d="m 575.64857,426.75621 a 144.66289,144.66289 0 0 1 -289.32577,0 144.66289,144.66289 0 1 1 289.32577,0 z"
       inkscape:label="#path2385"
       inkscape:connector-curvature="0" />
    <path
       style="fill:#ff9000;fill-opacity:1;stroke:#000000;stroke-width:1;stroke-linecap:round;stroke-linejoin:round;stroke-miterlimit:4;stroke-dasharray:none;stroke-opacity:1"
       d="m 384.2991,560.50779 a 12.451083,20.117622 0 0 0 -12.8069,20.11132 12.451083,20.117622 0 0 0 19.8638,16.12208 12.451083,20.117622 0 0 0 15.0903,-0.26137 12.451083,20.117622 0 0 0 20.0838,-15.86071 12.451083,20.117622 0 0 0 -20.0975,-15.87446 12.451083,20.117622 0 0 0 -15.0629,-0.26137 12.451083,20.117622 0 0 0 -7.0706,-3.97549 z"
       id="c9"
       inkscape:label="#path3226"
       inkscape:connector-curvature="0" />
    <path
       style="fill:#ff9000;fill-opacity:1;stroke:#000000;stroke-width:1;stroke-linecap:round;stroke-linejoin:round;stroke-miterlimit:4;stroke-dasharray:none;stroke-opacity:1"
       d="m 451.5799,560.50779 a 12.451083,20.117622 0 0 0 -12.8206,20.11132 12.451083,20.117622 0 0 0 19.8774,16.12208 12.451083,20.117622 0 0 0 15.0904,-0.26137 12.451083,20.117622 0 0 0 20.0838,-15.86071 12.451083,20.117622 0 0 0 -20.0976,-15.87446 12.451083,20.117622 0 0 0 -15.0628,-0.26137 12.451083,20.117622 0 0 0 -7.0706,-3.97549 z"
       id="c10"
       inkscape:label="#path3224"
       inkscape:connector-curvature="0" />
    <path
       id="c1"
       style="fill:#6b460c;fill-opacity:1;fill-rule:evenodd;stroke:#000000;stroke-width:1;stroke-miterlimit:4;stroke-dasharray:none;stroke-opacity:1"
       d="m 314.4644,394.41082 c 42.0384,15.11623 -12.3765,82.25889 33.0453,140.8442 8.3945,10.82875 -50.565,1.8268 -71.4081,-58.18033 -20.2687,-58.352 -0.9887,-93.96363 38.3628,-82.66387 z"
       inkscape:label="#path3169"
       inkscape:connector-curvature="0" />
    <path
       id="c2"
       style="fill:#6b460c;fill-opacity:1;fill-rule:evenodd;stroke:#000000;stroke-width:1;stroke-miterlimit:4;stroke-dasharray:none;stroke-opacity:1"
       d="m 547.2693,394.41082 c -42.0375,15.11579 12.37517,82.25889 -33.0448,140.8442 -8.3954,10.82875 50.56055,1.8268 71.40369,-58.18033 20.26957,-58.3564 0.98942,-93.96363 -38.36109,-82.66387 z"
       inkscape:label="#path3800"
       inkscape:connector-curvature="0" />
    <path
       id="c3"
       style="fill:#f0f0f0;fill-opacity:1;stroke:#000000;stroke-width:1;stroke-linecap:round;stroke-linejoin:round;stroke-miterlimit:4;stroke-dasharray:none;stroke-opacity:1"
       d="m 502.4929,499.08875 c -23.1546,-4.30201 -1.9637,18.90013 -5.5139,27.28977 -14.0355,-6.90135 -8.6876,15.946 -15.0343,22.2927 -12.0261,-0.64316 -13.9035,11.48376 -22.2927,15.03436 -10.1368,-5.62391 -17.6117,5.51386 -27.2898,5.51386 -9.6781,0 -15.4054,-10.7011 -27.2898,-5.51386 -8.3892,-3.55038 -10.2666,-15.24081 -22.2927,-15.03436 -6.3467,-6.3467 -5.3677,-30.50494 -15.0343,-22.2927 -3.5504,-8.3892 12.8347,-33.33935 -5.5139,-27.28977 0,-9.67809 19.4389,-27.63797 5.5139,-27.28978 3.5503,-8.38964 21.3568,-14.63554 15.0343,-22.2927 12.6939,-12.69385 30.2263,-20.54821 49.5834,-20.54821 19.3561,0 36.889,7.8548 49.5833,20.54821 -9.3805,4.59914 11.4838,13.9035 15.0344,22.2927 -15.6722,-0.78499 5.5138,17.61169 5.5138,27.28978 z"
       inkscape:label="#path3167"
       inkscape:connector-curvature="0" />
    <path
       id="ceyes"
       style="fill:#f0f0f0;fill-opacity:1;stroke:#000000;stroke-width:1;stroke-linecap:round;stroke-miterlimit:4;stroke-dasharray:none;stroke-opacity:1"
       d="m 390.8335,315.09242 c -27.2911,0 -49.4557,25.62848 -49.4557,57.2075 0,31.57769 22.1663,57.2075 49.4557,57.2075 16.0384,0 30.2708,-8.86065 39.3057,-22.5687 9.0345,13.71774 23.2977,22.5687 39.3427,22.5687 27.2911,0 49.4557,-25.62849 49.4557,-57.2075 0,-31.5777 -22.1663,-57.2075 -49.4557,-57.2075 -16.0433,0 -30.3082,8.8536 -39.3427,22.5687 -9.0349,-13.70497 -23.2695,-22.5687 -39.3057,-22.5687 z"
       inkscape:label="#path2387"
       inkscape:connector-curvature="0" />
    <path
       id="c8"
       style="fill:#ff9000;fill-opacity:1;fill-rule:evenodd;stroke:#000000;stroke-width:1;stroke-miterlimit:4;stroke-dasharray:none;stroke-opacity:1"
       d="m 429.7862,402.73047 c -8.1154,0 -16.9364,8.13125 -16.5839,13.26698 0.3529,5.13573 14.4666,26.53396 17.6421,26.53396 3.1756,0 15.5252,-20.97036 15.1721,-26.96183 -0.3528,-5.99147 -10.9383,-13.26698 -16.2308,-12.83911 z"
       inkscape:label="#path2391"
       inkscape:connector-curvature="0" />
    <path
       id="c6"
       style="fill:#000000;fill-opacity:1;stroke:#000000;stroke-width:1;stroke-linecap:round;stroke-miterlimit:4;stroke-dasharray:none;stroke-opacity:1"
       d="m 427.0174,376.16922 a 14.3184,14.3184 0 0 1 -28.6368,0 14.3184,14.3184 0 1 1 28.6368,0 z"
       inkscape:label="#path2411"
       inkscape:connector-curvature="0" />
    <path
       id="c5"
       style="fill:#f0f0f0;fill-opacity:1;stroke:#000000;stroke-width:1;stroke-linejoin:round;stroke-miterlimit:4;stroke-dasharray:none;stroke-opacity:1"
       d="m 442.2348,324.71944 c 11.6,-28.09972 43.3907,-47.18792 43.3907,-47.18792 0,0 -2.3219,25.05101 7.5335,20.97349 6.8012,-2.81392 41.1465,5.41894 49.3433,9.9884 10.19472,5.68317 -6.3506,13.87672 -6.3506,13.87672 0,0 -64.2858,-20.46634 -93.9196,2.34931 z"
       inkscape:label="#path3283"
       inkscape:connector-curvature="0"
       sodipodi:nodetypes="ccssccc" />
    <path
       id="c4"
       style="fill:#f0f0f0;fill-opacity:1;stroke:#000000;stroke-width:1;stroke-linejoin:round;stroke-miterlimit:4;stroke-dasharray:none;stroke-opacity:1"
       d="m 415.6384,322.09589 c 2.2914,-10.59799 -1.9481,-27.39201 -10.9849,-35.96971 -4.7775,-4.53477 -13.729,-10.56548 -20.7472,-12.62997 -4.2749,-1.25752 -8.6016,0.49469 -8.6016,0.49469 0,0 1.5594,25.917 -9.062,24.94746 -10.3297,-0.94292 -15.3885,1.56238 -30.5792,4.07084 -12.6972,2.09672 -17.3045,11.84635 -17.3045,11.84635 0,0 11.1885,0.57359 22.073,0.29187 28.7839,-0.745 55.1577,-8.4895 75.2091,6.94847 z"
       inkscape:label="#path3285"
       inkscape:connector-curvature="0"
       sodipodi:nodetypes="csscsscscc" />
    <path
       id="c7"
       style="fill:#000000;fill-opacity:1;stroke:#000000;stroke-width:1;stroke-linecap:round;stroke-miterlimit:4;stroke-dasharray:none;stroke-opacity:1"
       d="m 463.2761,376.16922 a 14.3184,14.3184 0 0 1 -28.6368,0 14.3184,14.3184 0 1 1 28.6368,0 z"
       inkscape:label="#path3301"
       inkscape:connector-curvature="0" />
  </g>
</svg>
