<?xml version="1.0" encoding="UTF-8" standalone="no"?>
<!-- Created with Inkscape (http://www.inkscape.org/) -->

<svg
   xmlns:dc="http://purl.org/dc/elements/1.1/"
   xmlns:cc="http://creativecommons.org/ns#"
   xmlns:rdf="http://www.w3.org/1999/02/22-rdf-syntax-ns#"
   xmlns:svg="http://www.w3.org/2000/svg"
   xmlns="http://www.w3.org/2000/svg"
   xmlns:sodipodi="http://sodipodi.sourceforge.net/DTD/sodipodi-0.dtd"
   xmlns:inkscape="http://www.inkscape.org/namespaces/inkscape"
   width="137.24368mm"
   height="108.76882mm"
   viewBox="0 0 486.29665 385.40138"
   id="svg4145"
   version="1.1"
   inkscape:version="0.91 r13725"
   sodipodi:docname="cartoon-owl-2.svg">
  <defs
     id="defs4147" />
  <sodipodi:namedview
     id="base"
     pagecolor="#ffffff"
     bordercolor="#666666"
     borderopacity="1.0"
     inkscape:pageopacity="0.0"
     inkscape:pageshadow="2"
     inkscape:zoom="1.4"
     inkscape:cx="126.46869"
     inkscape:cy="147.4628"
     inkscape:document-units="px"
     inkscape:current-layer="layer1"
     showgrid="false"
     inkscape:window-width="1855"
     inkscape:window-height="1056"
     inkscape:window-x="65"
     inkscape:window-y="24"
     inkscape:window-maximized="1"
     fit-margin-top="0"
     fit-margin-left="0"
     fit-margin-right="0"
     fit-margin-bottom="0" />
  <metadata
     id="metadata4150">
    <rdf:RDF>
      <cc:Work
         rdf:about="">
        <dc:format>image/svg+xml</dc:format>
        <dc:type
           rdf:resource="http://purl.org/dc/dcmitype/StillImage" />
        <dc:title />
      </cc:Work>
    </rdf:RDF>
  </metadata>
  <g
     inkscape:label="Calque 1"
     inkscape:groupmode="layer"
     id="layer1"
     transform="translate(-188.00475,-219.88661)">
    <path
       id="c0"
       style="fill:#6b460c;fill-opacity:1;stroke:#000000;stroke-width:1;stroke-linecap:round;stroke-miterlimit:4;stroke-dasharray:none;stroke-opacity:1"
       d="m 575.64857,426.75621 a 144.66289,144.66289 0 0 1 -289.32577,0 144.66289,144.66289 0 1 1 289.32577,0 z"
       inkscape:label="#path2385"
       inkscape:connector-curvature="0" />
    <path
       style="fill:#ff9000;fill-opacity:1;stroke:#000000;stroke-width:1;stroke-linecap:round;stroke-linejoin:round;stroke-miterlimit:4;stroke-dasharray:none;stroke-opacity:1"
       d="m 384.2991,560.50779 a 12.451083,20.117622 0 0 0 -12.8069,20.11132 12.451083,20.117622 0 0 0 19.8638,16.12208 12.451083,20.117622 0 0 0 15.0903,-0.26137 12.451083,20.117622 0 0 0 20.0838,-15.86071 12.451083,20.117622 0 0 0 -20.0975,-15.87446 12.451083,20.117622 0 0 0 -15.0629,-0.26137 12.451083,20.117622 0 0 0 -7.0706,-3.97549 z"
       id="c9"
       inkscape:label="#path3226"
       inkscape:connector-curvature="0" />
    <path
       style="fill:#ff9000;fill-opacity:1;stroke:#000000;stroke-width:1;stroke-linecap:round;stroke-linejoin:round;stroke-miterlimit:4;stroke-dasharray:none;stroke-opacity:1"
       d="m 451.5799,560.50779 a 12.451083,20.117622 0 0 0 -12.8206,20.11132 12.451083,20.117622 0 0 0 19.8774,16.12208 12.451083,20.117622 0 0 0 15.0904,-0.26137 12.451083,20.117622 0 0 0 20.0838,-15.86071 12.451083,20.117622 0 0 0 -20.0976,-15.87446 12.451083,20.117622 0 0 0 -15.0628,-0.26137 12.451083,20.117622 0 0 0 -7.0706,-3.97549 z"
       id="c10"
       inkscape:label="#path3224"
       inkscape:connector-curvature="0" />
    <path
       id="c1"
       style="fill:#6b460c;fill-opacity:1;fill-rule:evenodd;stroke:#000000;stroke-width:1;stroke-miterlimit:4;stroke-dasharray:none;stroke-opacity:1"
       d="m 322.91049,408.81792 c 16.47683,41.52398 -69.87153,45.14059 -83.7524,117.96023 -2.56646,13.45893 -34.82297,-36.70855 -3.61499,-92.03804 30.34687,-53.80375 69.80632,-62.90643 87.36739,-25.92219 z"
       inkscape:label="#path3169"
       inkscape:connector-curvature="0" />
    <path
       id="c2"
       style="fill:#6b460c;fill-opacity:1;fill-rule:evenodd;stroke:#000000;stroke-width:1;stroke-miterlimit:4;stroke-dasharray:none;stroke-opacity:1"
       d="m 552.82485,397.27129 c -37.99308,23.49818 29.15118,77.90942 -3.14378,144.63458 -5.96941,12.33332 49.84177,-8.68933 57.79868,-71.71297 7.73782,-61.28989 -18.50195,-92.12937 -54.65706,-72.92116 z"
       inkscape:label="#path3800"
       inkscape:connector-curvature="0" />
    <path
       id="c3"
       style="fill:#f0f0f0;fill-opacity:1;stroke:#000000;stroke-width:1;stroke-linecap:round;stroke-linejoin:round;stroke-miterlimit:4;stroke-dasharray:none;stroke-opacity:1"
       d="m 502.4929,499.08875 c -23.1546,-4.30201 -1.9637,18.90013 -5.5139,27.28977 -14.0355,-6.90135 -8.6876,15.946 -15.0343,22.2927 -12.0261,-0.64316 -13.9035,11.48376 -22.2927,15.03436 -10.1368,-5.62391 -17.6117,5.51386 -27.2898,5.51386 -9.6781,0 -15.4054,-10.7011 -27.2898,-5.51386 -8.3892,-3.55038 -10.2666,-15.24081 -22.2927,-15.03436 -6.3467,-6.3467 -5.3677,-30.50494 -15.0343,-22.2927 -3.5504,-8.3892 12.8347,-33.33935 -5.5139,-27.28977 0,-9.67809 19.4389,-27.63797 5.5139,-27.28978 3.5503,-8.38964 21.3568,-14.63554 15.0343,-22.2927 12.6939,-12.69385 30.2263,-20.54821 49.5834,-20.54821 19.3561,0 36.889,7.8548 49.5833,20.54821 -9.3805,4.59914 11.4838,13.9035 15.0344,22.2927 -15.6722,-0.78499 5.5138,17.61169 5.5138,27.28978 z"
       inkscape:label="#path3167"
       inkscape:connector-curvature="0" />
    <path
       id="ceyes"
       style="fill:#f0f0f0;fill-opacity:1;stroke:#000000;stroke-width:1;stroke-linecap:round;stroke-miterlimit:4;stroke-dasharray:none;stroke-opacity:1"
       d="m 390.8335,315.09242 c -27.2911,0 -49.4557,25.62848 -49.4557,57.2075 0,31.57769 22.1663,57.2075 49.4557,57.2075 16.0384,0 30.2708,-8.86065 39.3057,-22.5687 9.0345,13.71774 23.2977,22.5687 39.3427,22.5687 27.2911,0 49.4557,-25.62849 49.4557,-57.2075 0,-31.5777 -22.1663,-57.2075 -49.4557,-57.2075 -16.0433,0 -30.3082,8.8536 -39.3427,22.5687 -9.0349,-13.70497 -23.2695,-22.5687 -39.3057,-22.5687 z"
       inkscape:label="#path2387"
       inkscape:connector-curvature="0" />
    <path
       id="c8"
       style="fill:#ff9000;fill-opacity:1;fill-rule:evenodd;stroke:#000000;stroke-width:1;stroke-miterlimit:4;stroke-dasharray:none;stroke-opacity:1"
       d="m 429.7862,402.73047 c -8.1154,0 -16.9364,8.13125 -16.5839,13.26698 0.3529,5.13573 14.4666,26.53396 17.6421,26.53396 3.1756,0 15.5252,-20.97036 15.1721,-26.96183 -0.3528,-5.99147 -10.9383,-13.26698 -16.2308,-12.83911 z"
       inkscape:label="#path2391"
       inkscape:connector-curvature="0" />
    <path
       id="c6"
       style="fill:#000000;fill-opacity:1;stroke:#000000;stroke-width:1;stroke-linecap:round;stroke-miterlimit:4;stroke-dasharray:none;stroke-opacity:1"
       d="m 407.01739,376.16922 a 14.3184,14.3184 0 0 1 -28.6368,0 14.3184,14.3184 0 1 1 28.6368,0 z"
       inkscape:label="#path2411"
       inkscape:connector-curvature="0" />
    <path
       id="c5"
       style="fill:#f0f0f0;fill-opacity:1;stroke:#000000;stroke-width:1;stroke-linejoin:round;stroke-miterlimit:4;stroke-dasharray:none;stroke-opacity:1"
       d="m 448.54884,314.35449 c 15.30175,-26.26806 49.38639,-40.87098 49.38639,-40.87098 0,0 -5.69605,24.50508 4.62109,21.80106 7.11985,-1.86608 40.03224,10.94618 47.53402,16.58452 9.3303,7.01258 -8.17292,12.88785 -8.17292,12.88785 0,0 -60.91838,-28.99116 -93.37127,-10.40282 z"
       inkscape:label="#path3283"
       inkscape:connector-curvature="0"
       sodipodi:nodetypes="ccssccc" />
    <path
       id="c4"
       style="fill:#f0f0f0;fill-opacity:1;stroke:#000000;stroke-width:1;stroke-linejoin:round;stroke-miterlimit:4;stroke-dasharray:none;stroke-opacity:1"
       d="m 420.39772,301.40229 c -0.58625,-10.82701 -9.10686,-25.90719 -20.08675,-31.79639 -5.80476,-3.11344 -16.03031,-6.56842 -23.34453,-6.70789 -4.45521,-0.0849 -8.16622,2.74682 -8.16622,2.74682 0,0 8.34274,24.58702 -2.15807,26.45446 -10.21241,1.81615 -14.43086,5.5675 -28.4213,11.99536 -11.69395,5.37277 -13.56538,15.99257 -13.56538,15.99257 0,0 10.94333,-2.39899 21.36774,-5.54277 27.5672,-8.31368 50.9628,-22.74284 74.37711,-13.14287 z"
       inkscape:label="#path3285"
       inkscape:connector-curvature="0"
       sodipodi:nodetypes="csscsscscc" />
    <path
       id="c7"
       style="fill:#000000;fill-opacity:1;stroke:#000000;stroke-width:1;stroke-linecap:round;stroke-miterlimit:4;stroke-dasharray:none;stroke-opacity:1"
       d="m 463.2761,376.16922 a 14.3184,14.3184 0 0 1 -28.6368,0 14.3184,14.3184 0 1 1 28.6368,0 z"
       inkscape:label="#path3301"
       inkscape:connector-curvature="0" />
  </g>
</svg>
