<?xml version="1.0" encoding="UTF-8" standalone="no"?>
<!-- Created with Inkscape (http://www.inkscape.org/) -->

<svg
   xmlns:dc="http://purl.org/dc/elements/1.1/"
   xmlns:cc="http://creativecommons.org/ns#"
   xmlns:rdf="http://www.w3.org/1999/02/22-rdf-syntax-ns#"
   xmlns:svg="http://www.w3.org/2000/svg"
   xmlns="http://www.w3.org/2000/svg"
   xmlns:sodipodi="http://sodipodi.sourceforge.net/DTD/sodipodi-0.dtd"
   xmlns:inkscape="http://www.inkscape.org/namespaces/inkscape"
   id="svg1"
   sodipodi:docname="chinese.svg"
   sodipodi:version="0.32"
   version="1.0"
   inkscape:output_extension="org.inkscape.output.svg.inkscape"
   inkscape:version="0.91 r13725"
   width="1000"
   height="1000">
  <defs
     id="defs26" />
  <sodipodi:namedview
     id="base"
     bordercolor="#666666"
     inkscape:pageshadow="2"
     inkscape:window-width="1855"
     pagecolor="#ffffff"
     inkscape:zoom="0.70710678"
     inkscape:window-x="65"
     showgrid="false"
     borderopacity="1.0"
     inkscape:current-layer="layer1"
     inkscape:cx="323.98167"
     inkscape:cy="363.33016"
     inkscape:window-y="24"
     inkscape:window-height="1056"
     inkscape:pageopacity="0.0"
     inkscape:window-maximized="1" />
  <metadata
     id="metadata24">
    <rdf:RDF>
      <cc:Work>
        <dc:format>image/svg+xml</dc:format>
        <dc:type
           rdf:resource="http://purl.org/dc/dcmitype/StillImage" />
        <cc:license
           rdf:resource="http://creativecommons.org/publicdomain/zero/1.0/" />
        <dc:publisher>
          <cc:Agent
             rdf:about="http://openclipart.org/">
            <dc:title>Openclipart</dc:title>
          </cc:Agent>
        </dc:publisher>
        <dc:title></dc:title>
        <dc:date>2008-02-09T00:29:59</dc:date>
        <dc:description />
        <dc:source>https://openclipart.org/detail/13224/sung---chinese-taichi-meaning-flowing-relaxed-by-anonymous</dc:source>
        <dc:creator>
          <cc:Agent>
            <dc:title>Anonymous</dc:title>
          </cc:Agent>
        </dc:creator>
        <dc:subject>
          <rdf:Bag>
            <rdf:li>chi</rdf:li>
            <rdf:li>chinese</rdf:li>
            <rdf:li>kanji</rdf:li>
            <rdf:li>tai</rdf:li>
          </rdf:Bag>
        </dc:subject>
      </cc:Work>
      <cc:License
         rdf:about="http://creativecommons.org/publicdomain/zero/1.0/">
        <cc:permits
           rdf:resource="http://creativecommons.org/ns#Reproduction" />
        <cc:permits
           rdf:resource="http://creativecommons.org/ns#Distribution" />
        <cc:permits
           rdf:resource="http://creativecommons.org/ns#DerivativeWorks" />
      </cc:License>
    </rdf:RDF>
  </metadata>
  <g
     inkscape:groupmode="layer"
     id="layer1"
     inkscape:label="Layer 1"
     style="display:inline">
    <g
       id="g4184"
       style=""
       transform="matrix(4.7709347,0,0,4.7709347,126.46301,134.50439)">
      <path
         id="path4149-3-7"
         style="opacity:1;fill:#d3d3d3;"
         d="m 161.89259,154.43291 a 10.429825,10.429825 0 0 1 -10.42982,10.42982 10.429825,10.429825 0 0 1 -10.42983,-10.42982 10.429825,10.429825 0 0 1 10.42983,-10.42983 10.429825,10.429825 0 0 1 10.42982,10.42983 z M 14.766056,154.7206 A 10.429825,10.429825 0 0 1 4.3362312,165.15042 10.429825,10.429825 0 0 1 -6.0935936,154.7206 10.429825,10.429825 0 0 1 4.3362312,144.29077 10.429825,10.429825 0 0 1 14.766056,154.7206 Z M 160.91512,4.0117884 A 10.429825,10.429825 0 0 1 150.48529,14.441613 10.429825,10.429825 0 0 1 140.05547,4.0117884 10.429825,10.429825 0 0 1 150.48529,-6.4180365 10.429825,10.429825 0 0 1 160.91512,4.0117884 Z M 13.788582,4.2994776 A 10.429825,10.429825 0 0 1 3.3587573,14.729302 10.429825,10.429825 0 0 1 -7.0710676,4.2994776 10.429825,10.429825 0 0 1 3.3587573,-6.1303473 10.429825,10.429825 0 0 1 13.788582,4.2994776 Z M -6.8889226,-22.121609 -21.889008,-7.1215236 l 0,173.1974836 11.369872,11.36987 173.942396,0 16.50481,-16.50481 0,-162.9276022 -20.13502,-20.1350268 -166.6819726,0 z"
         inkscape:connector-curvature="0" />
    </g>
    <g
       transform="translate(0.55208411,-14.870615)"
       id="g4705">
      <path
         inkscape:connector-curvature="0"
         d="M 520.00446,295.15569 C 650.47521,216.88374 666.8395,186.32113 669.8452,178.11989 c 2.95797,-8.1998 -16.41202,-40.99998 29.81834,-23.85419 17.12766,6.70888 51.43068,23.10898 38.73999,38.01814 -21.61233,5.22036 -43.22467,22.36233 -83.49135,45.47273 -95.39962,59.63669 -134.90772,57.39912 -134.90772,57.39912 z"
         style="fill:#093324;fill-rule:evenodd"
         sodipodi:nodetypes="cccccc"
         id="path106" />
      <path
         inkscape:connector-curvature="0"
         d="m 538.2819,395.3167 c 130.46599,-78.27673 146.878,-108.83934 149.83598,-117.04058 3.00569,-8.19647 -16.41201,-40.99664 29.81834,-23.85468 17.12765,6.71271 51.43068,23.11042 38.78771,38.01959 -21.66006,5.2194 -43.27239,22.36614 -83.49137,45.47177 -95.44254,59.6367 -134.95066,57.4039 -134.95066,57.4039 z"
         style="fill:#093324;fill-rule:evenodd"
         sodipodi:nodetypes="cccccc"
         id="path107" />
      <path
         inkscape:connector-curvature="0"
         d="m 519.06458,515.73508 c 130.45644,-78.27672 183.22298,-124.12541 186.22866,-132.32665 2.95798,-8.19645 -16.41201,-40.99664 29.81835,-23.85467 17.12766,6.71271 51.43067,23.11042 38.73999,38.01958 -21.61233,5.2194 -43.22467,22.36614 -83.49137,45.47179 -95.41392,59.63667 -181.83463,81.64977 -171.29563,72.68995 z"
         style="fill:#093324;fill-rule:evenodd"
         sodipodi:nodetypes="cccccc"
         id="path108" />
      <g
         transform="matrix(4.7709347,0,0,4.7709347,-1623.3999,-2256.6551)"
         style="fill:#093324"
         id="g11">
        <path
           inkscape:connector-curvature="0"
           d="m 403.9,556.95 c 3.52,-4.19 1.58,-3.51 3.23,-1.58 1.96,2.47 4.65,6.12 6.03,8.1 -0.89,1.44 3.26,-3.67 -12.52,12.76 -4.95,5.15 16.05,-5.14 31.2,-8.14 7.89,-1.57 4.13,3.78 2.97,4.18 -13.71,4.72 -31.41,10.29 -36.44,12.43 -6.3,2.67 -7.99,5.47 -9.18,4.9 -3.77,-1.78 -6.82,-9.84 -5.7,-10.6 3.37,-2.3 6.69,-1.89 16.04,-15.25"
           style="fill:#093324;fill-rule:evenodd"
           sodipodi:nodetypes="cccsssssss"
           id="path13" />
      </g>
      <path
         inkscape:connector-curvature="0"
         d="m 459.92885,435.93643 c 23.47776,6.52664 38.92128,28.00539 41.36877,38.25335 7.55716,31.62176 -17.66677,31.90325 -24.36993,31.90802 -6.6984,0.005 -30.61986,-24.93768 -60.23782,-64.00686 -28.68287,-37.84784 12.6716,-18.64005 43.23898,-6.15451 z"
         style="fill:#093324;fill-rule:evenodd"
         sodipodi:nodetypes="csssc"
         id="path12" />
      <path
         inkscape:connector-curvature="0"
         id="path89"
         d="m 462.41091,151.46229 c -2.77774,0.0382 -5.2856,0.51955 -7.60367,1.49093 -105.07022,24.46863 -71.58316,20.66934 -131.05161,31.16016 0.1777,-12.80004 -9.10067,-11.41327 -33.39655,-18.63647 -27.58077,-8.20028 -35.27271,9.59006 -24.60013,28.62561 6.50638,6.2724 12.63613,34.73803 17.59282,66.94218 -1.31992,0.68158 -1.13655,1.21282 0.14909,1.64001 6.4286,42.27745 10.91229,90.55196 11.33097,104.81146 0.20724,7.01286 0.3562,10.85985 0.59638,13.56736 -46.30778,7.48641 -95.04678,14.15068 -138.9535,16.69827 -30.57261,2.63354 -39.47947,14.22334 9.54188,30.56379 46.9126,5.27189 43.75306,-2.10398 132.84072,-22.66193 51.91731,-9.22222 133.38579,-23.67458 153.86265,-26.38924 30.29542,-4.01236 36.11478,-6.696 45.17478,-6.26185 44.00233,2.08966 -3.73444,-27.94456 -21.91648,-21.61829 -27.18648,1.75408 -86.44921,13.71501 -153.71356,25.1965 -0.61271,-13.94555 -0.9951,-32.64956 -1.19273,-53.37484 40.53503,-0.70462 134.15035,-10.67487 149.38989,-14.90917 21.08277,-11.06857 -9.487,-28.51826 -28.32742,-18.78555 -30.34816,6.74018 -69.30039,14.70292 -121.21156,19.23283 -0.0685,-13.61964 0.0657,-27.34891 0.14909,-40.70204 37.65809,-2.01901 134.00852,-17.71295 149.68808,-22.06557 21.08753,-11.07334 -18.84281,-30.23699 -29.52017,-20.12738 -24.65261,10.35187 -47.06019,13.65637 -120.01882,27.13469 0.21545,-19.82801 0.50532,-37.56892 1.04364,-49.34936 38.61458,-1.37713 116.74849,-10.95468 169.66637,-23.85467 17.05728,-8.21637 -10.076,-28.59226 -29.52016,-28.32743 z"
         style="fill:#093324;fill-rule:evenodd" />
    </g>
    <g
       transform="translate(0.55208411,-14.870615)"
       id="g4714">
      <path
         inkscape:connector-curvature="0"
         d="M 868.98402,668.50041 C 717.26828,624.30248 666.7918,536.44094 652.57441,533.80262 c -21.75546,-11.33098 -47.04141,0.13358 -38.50143,4.74707 41.65026,4.21275 104.62659,123.27141 169.46359,162.82246 9.35104,9.25561 53.86386,-5.91596 72.32737,-12.54755 18.46352,-6.6316 26.19244,-13.69258 13.12008,-20.32419 z"
         style="fill:#093324;fill-rule:evenodd"
         sodipodi:nodetypes="ccccsc"
         id="path111" />
      <g
         transform="matrix(4.7709347,0,0,4.7709347,-1343.6323,-2012.1446)"
         style="fill:#093324"
         id="g10">
        <path
           inkscape:connector-curvature="0"
           d="m 425.47,576.74 c 7.11,4.45 14.84,11.17 15.94,18.28 0.86,3.83 -0.86,15.39 -7.97,8.2 -5.39,-5.74 -12.49,-20.71 -18.75,-28.87 -2.73,-3.55 -2.42,-5.54 10.78,2.39 z"
           style="fill:#093324;fill-rule:evenodd"
           sodipodi:nodetypes="cccsc"
           id="path112" />
        <path
           inkscape:connector-curvature="0"
           d="m 400.6,560.96 c 1.02,-2.17 -0.51,-13.3 4.89,-8.09 2.43,1.77 7.77,8.31 6.89,9.74 -0.89,1.44 -6.97,8.99 -22.75,25.41 -4.96,5.16 19.64,-3.18 34.79,-6.18 7.89,-1.57 1.55,3.08 0.39,3.48 -13.71,4.72 -21.8,8.18 -26.91,10 -6.44,2.3 -14.43,7.15 -15.74,7.17 -0.72,0.02 -10.14,-9.94 -8.83,-10.29 2.43,-0.66 20.45,-17.66 27.3,-31.26"
           style="fill:#093324;fill-rule:evenodd"
           sodipodi:nodetypes="cccsssssss"
           id="path114" />
      </g>
      <path
         inkscape:connector-curvature="0"
         d="m 439.38042,687.05935 c 31.31165,-36.87933 74.38842,-110.31355 74.76055,-116.64936 8.33006,-22.14667 -4.45129,-31.29732 23.85468,-20.96826 11.92733,4.84728 38.94514,21.84612 26.27353,36.75529 -11.72696,11.39776 -38.94514,38.63025 -58.6968,57.25599 -67.46579,62.64237 -76.73573,52.57569 -66.19196,43.60634 z"
         style="fill:#093324;fill-rule:evenodd"
         sodipodi:nodetypes="cccccc"
         id="path87" />
      <path
         inkscape:connector-curvature="0"
         id="path35"
         d="m 330.76293,523.44611 c -18.18917,-1.68333 -10.85358,21.29149 -6.11275,24.74922 -0.11976,3.23718 5.2e-4,26.618 0.14909,55.46212 -44.09228,8.37441 -97.59613,17.83294 -161.01904,29.96742 -52.71169,1.04962 -48.425,26.27593 0.59635,42.64024 46.9126,5.24802 39.43417,-11.04471 128.51706,-31.60745 6.66848,-1.18261 13.05746,-2.39347 19.08373,-3.5782 -56.07425,73.80045 -123.42168,143.09369 -177.71731,168.17545 -10.54377,8.96936 36.65152,11.03278 119.42246,-48.60389 30.51381,-22.0255 52.27474,-43.25096 71.71311,-62.32034 0.29661,38.08065 0.63444,79.85848 0.89455,101.08418 -0.0525,32.44236 -12.56784,32.6809 -10.28733,41.74568 22.89571,91.3634 56.17299,30.1046 51.88391,-1.19274 -0.38028,-18.67363 -1.93224,-89.57319 -1.78909,-156.09901 13.63867,4.18272 10.84376,15.95935 35.48382,38.61475 12.28993,11.25941 20.7154,20.46135 26.83651,17.74192 6.6984,-3.0057 9.24488,-13.96692 9.98914,-30.7129 -2.60969,-23.5207 -44.65117,-27.69528 -67.38945,-37.57111 -1.78427,-0.3917 -3.30608,-0.81392 -4.77093,-1.19273 0.0845,-14.43065 0.15072,-28.57537 0.44728,-41.59659 12.06496,-2.77324 22.53107,-5.04994 30.56379,-6.11276 30.29067,-4.01712 36.71116,-7.29238 45.77117,-6.85822 44.00232,2.08967 -3.28719,-40.02099 -21.46921,-33.69473 -14.75904,4.15029 -32.9086,8.21436 -53.67303,12.52371 1.16324,-22.00084 3.06429,-37.28347 5.81459,-39.95658 6.70793,-14.16014 -8.79999,-19.22925 -25.94196,-25.94196 -7.26465,-3.54327 -12.79895,-5.27698 -16.99646,-5.66548 z"
         style="fill:#093324;fill-rule:evenodd" />
    </g>
  </g>
</svg>
