<?xml version="1.0" encoding="UTF-8" standalone="no"?>
<!-- Created with Inkscape (http://www.inkscape.org/) -->

<svg
   xmlns:dc="http://purl.org/dc/elements/1.1/"
   xmlns:cc="http://creativecommons.org/ns#"
   xmlns:rdf="http://www.w3.org/1999/02/22-rdf-syntax-ns#"
   xmlns:svg="http://www.w3.org/2000/svg"
   xmlns="http://www.w3.org/2000/svg"
   xmlns:sodipodi="http://sodipodi.sourceforge.net/DTD/sodipodi-0.dtd"
   xmlns:inkscape="http://www.inkscape.org/namespaces/inkscape"
   width="170.47401mm"
   height="111.09731mm"
   viewBox="0 0 604.04178 393.65189"
   id="svg6758"
   version="1.1"
   inkscape:version="0.91 r13725"
   sodipodi:docname="dinosaur2.svg">
  <defs
     id="defs6760" />
  <sodipodi:namedview
     id="base"
     pagecolor="#ffffff"
     bordercolor="#666666"
     borderopacity="1.0"
     inkscape:pageopacity="0.0"
     inkscape:pageshadow="2"
     inkscape:zoom="3.959798"
     inkscape:cx="95.09149"
     inkscape:cy="237.87175"
     inkscape:document-units="px"
     inkscape:current-layer="layer1"
     showgrid="false"
     inkscape:window-width="1855"
     inkscape:window-height="1056"
     inkscape:window-x="65"
     inkscape:window-y="24"
     inkscape:window-maximized="1"
     fit-margin-top="0"
     fit-margin-left="0"
     fit-margin-right="0"
     fit-margin-bottom="0" />
  <metadata
     id="metadata6763">
    <rdf:RDF>
      <cc:Work
         rdf:about="">
        <dc:format>image/svg+xml</dc:format>
        <dc:type
           rdf:resource="http://purl.org/dc/dcmitype/StillImage" />
        <dc:title />
      </cc:Work>
    </rdf:RDF>
  </metadata>
  <g
     inkscape:label="Layer 1"
     inkscape:groupmode="layer"
     id="layer1"
     transform="translate(-75.121945,-315.49333)">
    <g
       id="g4862">
      <path
         sodipodi:nodetypes="cccc"
         inkscape:connector-curvature="0"
         id="path5876"
         d="m 286.20628,582.32157 c -1.59799,11.22031 -7.56549,16.34412 -14.26342,20.44887 3.97491,-8.34124 6.90517,-16.61132 4.51777,-24.51919 z"
         style="opacity:1;fill:#ececec;fill-opacity:1;stroke:#000000;stroke-width:0.46570367;stroke-opacity:1" />
      <path
         style="opacity:1;fill:#ececec;fill-opacity:1;stroke:#000000;stroke-width:0.46570367;stroke-opacity:1"
         d="m 273.31378,587.31627 c -0.14079,11.33265 -5.39931,17.1818 -11.51332,22.11436 2.86846,-8.7834 4.7101,-17.36181 1.32492,-24.8967 z"
         id="path5884"
         inkscape:connector-curvature="0"
         sodipodi:nodetypes="cccc" />
      <path
         sodipodi:nodetypes="cccc"
         inkscape:connector-curvature="0"
         id="path5892"
         d="m 262.65159,576.72104 c -9.48797,6.19897 -11.60273,13.77474 -12.48501,21.58069 5.87326,-7.1331 12.12442,-13.28969 20.29925,-14.47556 z"
         style="opacity:1;fill:#ececec;fill-opacity:1;stroke:#000000;stroke-width:0.46570367;stroke-opacity:1" />
    </g>
    <g
       id="g4851">
      <path
         sodipodi:nodetypes="sccs"
         inkscape:connector-curvature="0"
         id="path3650"
         d="m 99.921298,451.98882 c 5.665302,-0.92939 10.432412,-23.29591 10.432412,-23.29591 l -27.761089,4.5542 c 0,0 11.986181,19.61814 17.328677,18.74171 z"
         style="opacity:1;fill:#c7bfbf;fill-opacity:1;stroke:#000000;stroke-width:0.28177574;stroke-opacity:1" />
      <path
         style="opacity:1;fill:#c7bfbf;fill-opacity:1;stroke:#000000;stroke-width:0.32306415;stroke-opacity:1"
         d="m 125.15455,453.16899 c 5.65568,-0.92781 9.31659,-29.95009 9.31659,-29.95009 l -27.71394,4.54647 c 0,0 13.06393,26.27857 18.39735,25.40362 z"
         id="path3642"
         inkscape:connector-curvature="0"
         sodipodi:nodetypes="sccs" />
      <path
         style="opacity:1;fill:#c7bfbf;fill-opacity:1;stroke:#000000;stroke-width:0.22951375;stroke-opacity:1"
         d="m 154.54843,446.22212 c 5.8159,-0.28726 13.56223,-14.61932 13.56223,-14.61932 l -28.49908,1.40762 c 0,0 9.45233,13.48259 14.93685,13.2117 z"
         id="path3634"
         inkscape:connector-curvature="0"
         sodipodi:nodetypes="sccs" />
    </g>
    <g
       id="g4856"
       style="fill:#d3d3d3;fill-opacity:1">
      <path
         style="opacity:1;fill:#d3d3d3;fill-opacity:1;stroke:#000000;stroke-width:0.2409125;stroke-opacity:1"
         d="m 118.08903,450.35657 c 4.57915,-1.10635 18.21655,15.11925 18.21655,15.11925 l -22.43876,5.42135 c 0,0 -0.096,-19.49728 4.22221,-20.5406 z"
         id="path3658"
         inkscape:connector-curvature="0"
         sodipodi:nodetypes="sccs" />
      <path
         sodipodi:nodetypes="sccs"
         inkscape:connector-curvature="0"
         id="path3626"
         d="m 164.92772,435.91439 c 3.3198,-1.00967 14.14908,14.42115 14.14908,14.42115 l -16.26765,4.94757 c 0,0 -1.01206,-18.41658 2.11857,-19.36872 z"
         style="opacity:1;fill:#d3d3d3;fill-opacity:1;stroke:#000000;stroke-width:0.20090041;stroke-opacity:1" />
      <path
         style="opacity:1;fill:#d3d3d3;fill-opacity:1;stroke:#000000;stroke-width:0.25200006;stroke-opacity:1"
         d="m 92.490984,452.25158 c 4.786792,-1.22879 16.648856,16.15832 16.648856,16.15832 l -23.456232,6.0213 c 0,0 2.293331,-21.02085 6.807376,-22.17962 z"
         id="path3618"
         inkscape:connector-curvature="0"
         sodipodi:nodetypes="sccs" />
      <path
         sodipodi:nodetypes="sccs"
         inkscape:connector-curvature="0"
         id="path3605"
         d="m 139.25462,434.3137 c 4.78189,-1.3755 18.95474,18.52588 18.95474,18.52588 l -23.43223,6.74021 c 0,0 -0.0319,-23.96897 4.47749,-25.26609 z"
         style="opacity:1;fill:#d3d3d3;fill-opacity:1;stroke:#000000;stroke-width:0.27285331;stroke-opacity:1" />
    </g>
    <path
       inkscape:transform-center-y="10.206707"
       inkscape:transform-center-x="75.324958"
       sodipodi:nodetypes="caaaaaccc"
       inkscape:connector-curvature="0"
       id="path3537"
       d="m 206.13604,422.93873 c 19.66287,-23.86136 38.07675,-38.44197 61.02461,-34.25373 13.44216,2.45336 24.33289,17.88474 26.35365,31.39869 1.76796,11.82321 -5.99469,24.14587 -14.01229,33.01332 -10.26825,11.35668 -25.79316,17.10284 -40.26506,22.10043 -39.95638,13.79818 -83.77188,15.72927 -125.1335,20.58463 -2.54923,0.27823 -5.34455,0.94862 -7.69264,-0.0815 -10.465726,-4.59296 -22.617488,-24.95778 -22.617488,-24.95778 0,0 88.179588,-19.99988 122.342718,-47.80408 z"
       style="fill:#b6b300;fill-rule:evenodd;stroke:#000000;stroke-width:3;stroke-linecap:butt;stroke-linejoin:miter;stroke-opacity:1;fill-opacity:1" />
    <path
       sodipodi:nodetypes="caaassscaccacccsccccccc"
       inkscape:connector-curvature="0"
       id="path3502"
       d="m 78.4781,442.50229 c 0,0 -3.5322,-23.73291 -0.8209,-35.12695 1.5378,-6.46266 5.2804,-12.35912 9.3897,-17.57875 4.6038,-5.84769 10.1445,-11.27788 16.6747,-14.84808 5.0907,-2.78314 11.29909,-2.73622 16.7602,-4.69491 13.29339,-4.76782 27.65311,-10.26777 39.05468,-24.83698 9.95993,-12.72705 14.12608,-18.08146 31.73005,-25.98841 13.80114,-6.19888 40.95207,1.51291 40.95207,1.51291 0,0 18.9761,0.72887 27.5216,4.36964 9.319,3.97033 24.2277,18.34365 24.2277,18.34365 l 4.2779,8.49313 c 0,0 31.6292,27.39251 35.953,46.50299 3.8523,17.02651 -11.0775,51.18563 -11.0775,51.18563 l -3.5755,16.09827 12.242,25.3664 c 0,0 10.3929,30.7502 -11.7133,37.2974 -27.6632,8.19301 -39.6372,-18.19985 -39.6372,-18.19985 l -10.9168,-23.5258 -17.4818,-33.49167 -28.2376,-15.27263 -38.2367,-5.06986 -38.3737,1.39682 z"
       style="fill:#37c837;fill-opacity:1;fill-rule:evenodd;stroke:#000000;stroke-width:3;stroke-linecap:butt;stroke-linejoin:miter;stroke-opacity:1" />
    <g
       id="g4867">
      <path
         style="opacity:1;fill:#eaeaea;fill-opacity:1;stroke:#000000;stroke-width:0.46570367;stroke-opacity:1"
         d="m 327.63488,598.03586 c -1.59799,11.22031 -7.56549,16.34412 -14.26342,20.44887 3.97491,-8.34124 6.90517,-16.61132 4.51777,-24.51919 z"
         id="path5722"
         inkscape:connector-curvature="0"
         sodipodi:nodetypes="cccc" />
      <path
         sodipodi:nodetypes="cccc"
         inkscape:connector-curvature="0"
         id="path5714"
         d="m 314.74238,603.03056 c -0.14079,11.33265 -5.39931,17.1818 -11.51332,22.11436 2.86846,-8.7834 4.7101,-17.36181 1.32492,-24.8967 z"
         style="opacity:1;fill:#eaeaea;fill-opacity:1;stroke:#000000;stroke-width:0.46570367;stroke-opacity:1" />
      <path
         style="opacity:1;fill:#eaeaea;fill-opacity:1;stroke:#000000;stroke-width:0.46570367;stroke-opacity:1"
         d="m 304.08019,592.43533 c -9.48797,6.19897 -11.60273,13.77474 -12.48501,21.58069 5.87326,-7.1331 12.12442,-13.28969 20.29925,-14.47556 z"
         id="path5701"
         inkscape:connector-curvature="0"
         sodipodi:nodetypes="cccc" />
    </g>
    <path
       style="fill:#37c837;fill-opacity:1;fill-rule:evenodd;stroke:#000000;stroke-width:1px;stroke-linecap:butt;stroke-linejoin:miter;stroke-opacity:1"
       d="m 338.23886,515.13401 c -3.602,-4.30148 -9.44961,-7.23146 -15.05201,-7.53193 -3.83367,-0.20561 -7.89718,1.50117 -10.79212,4.02282 -2.75371,2.39864 -4.21927,6.12558 -5.19849,9.6437 -1.12462,4.04019 -0.6106,12.56655 -0.6106,12.56655 l -6.38355,5.8306 -1.39147,6.28632 -12.44346,11.89513 -9.47494,2.61001 -22.73947,23.81492 c 0,0 1.75577,1.58455 2.41078,2.55529 1.05223,1.55973 2.35688,5.12899 2.35688,5.12899 l 4.36331,-5.86167 1.78554,6.06093 6.50045,2.69511 4.09776,-6.79549 c 0,0 3.35761,1.22954 4.95174,2.03033 1.26736,0.63664 3.64522,2.19455 3.64522,2.19455 l 5.1609,-22.17028 c 0,0 9.54712,0.745 14.26806,0.16551 4.65496,-0.57141 9.74183,-0.91157 13.61165,-3.56103 3.40462,-2.33092 7.25242,-10.0311 7.25242,-10.0311 0.9751,-3.82092 2.65719,-7.32185 4.31435,-10.87422 0,0 7.43611,-2.64816 9.61332,-5.6635 2.79099,-3.86556 3.19299,-9.21792 3.01394,-13.98242 -0.14389,-3.83092 -0.79892,-8.0899 -3.26021,-11.02912 z"
       id="path5912"
       inkscape:connector-curvature="0"
       sodipodi:nodetypes="aaaaccccccacccccaccaaccaaa" />
    <path
       style="opacity:1;fill:#37c837;fill-opacity:1;stroke:#000000;stroke-width:3;stroke-opacity:1"
       d="m 467.7771,548.46035 c -14.9798,-12.99787 -38.917,-17.06473 -61.9479,-10.5247 -33.8108,9.60072 -55.1664,38.7019 -47.6988,64.99905 1.8715,6.49604 5.4349,12.43293 10.4703,17.44458 1.3159,16.99322 0.2395,31.09825 14.8035,64.08631 l 37.23,-5.45017 c -4.3978,-18.42689 -3.3427,-35.22028 15.1893,-46.7784 32.2514,-10.49186 51.9365,-38.67901 44.7455,-64.07108 -2.1316,-7.50645 -6.5148,-14.25866 -12.7919,-19.70559 z"
       id="path5590"
       inkscape:connector-curvature="0"
       sodipodi:nodetypes="csccccccc" />
    <path
       style="opacity:1;fill:#f3f3f3;fill-opacity:1;stroke:#000000;stroke-width:2.48374438;stroke-opacity:1"
       d="M 326.96875 355.3457 C 313.77098 355.35263 301.62191 358.36897 291.99609 363.41992 A 46.801308 31.078043 0 0 0 273.54883 360.85547 A 46.801308 31.078043 0 0 0 226.79297 391.32422 L 285.96875 391.32422 C 285.98358 391.59842 285.99147 391.87448 286.00781 392.14844 L 383.45898 392.14844 C 382.85563 371.71515 357.74573 355.35617 326.96875 355.3457 z "
       transform="translate(75.121945,315.49333)"
       id="path5608" />
    <path
       sodipodi:nodetypes="acacscaaasa"
       inkscape:connector-curvature="0"
       id="path5088"
       d="m 286.494,493.75515 c 7.2374,-11.60346 30.905,-26.98264 30.905,-26.98264 0,0 54.0889,1.74529 80.2294,7.98656 31.0433,7.41182 89.2845,34.58095 89.2845,34.58095 0,0 72.2516,-8.06728 117.7748,5.50958 49.2027,14.67425 68.5703,31.55366 68.5703,31.55366 0,0 -48.9032,-3.74278 -72.8806,0.16397 -46.6038,7.59338 -87.7781,37.36806 -134.4291,44.665 -35.9572,5.62427 -74.5193,9.96455 -109.1774,-1.1427 -31.3485,-10.04657 -79.0332,-47.59948 -80.9566,-56.55936 -2.8812,-13.42218 3.4146,-28.12709 10.6797,-39.77502 z"
       style="fill:#37c837;fill-opacity:1;fill-rule:evenodd;stroke:#000000;stroke-width:4.03108931;stroke-linecap:butt;stroke-linejoin:miter;stroke-opacity:1" />
    <path
       inkscape:connector-curvature="0"
       id="path3491"
       d="m 213.17878,346.60181 -51.3252,30.20441 a 26.269783,30.956456 65.208166 0 0 35.71105,16.40807 26.269783,30.956456 65.208166 0 0 23.24372,-34.56215 26.269783,30.956456 65.208166 0 0 -7.62957,-12.05033 z"
       style="opacity:1;fill:#d5d5d5;fill-opacity:1;stroke:#000000;stroke-width:1;stroke-opacity:1" />
    <path
       sodipodi:nodetypes="aaaaccccccacccccaccaaccaaa"
       inkscape:connector-curvature="0"
       id="path5735"
       d="m 379.66746,530.8483 c -3.602,-4.30148 -9.44961,-7.23146 -15.05201,-7.53193 -3.83367,-0.20561 -7.89718,1.50117 -10.79212,4.02282 -2.75371,2.39864 -4.21927,6.12558 -5.19849,9.6437 -1.12462,4.04019 -0.6106,12.56655 -0.6106,12.56655 l -6.38355,5.8306 -1.39147,6.28632 -12.44346,11.89513 -9.47494,2.61001 -22.73947,23.81492 c 0,0 1.75577,1.58455 2.41078,2.55529 1.05223,1.55973 2.35688,5.12899 2.35688,5.12899 l 4.36331,-5.86167 1.78554,6.06093 6.50045,2.69511 4.09776,-6.79549 c 0,0 3.35761,1.22954 4.95174,2.03033 1.26736,0.63664 3.64522,2.19455 3.64522,2.19455 l 5.1609,-22.17028 c 0,0 9.54712,0.745 14.26806,0.16551 4.65496,-0.57141 9.74183,-0.91157 13.61165,-3.56103 3.40462,-2.33092 7.25242,-10.0311 7.25242,-10.0311 0.9751,-3.82092 2.65719,-7.32185 4.31435,-10.87422 0,0 7.43611,-2.64816 9.61332,-5.6635 2.79099,-3.86556 3.19299,-9.21792 3.01394,-13.98242 -0.14389,-3.83092 -0.79892,-8.0899 -3.26021,-11.02912 z"
       style="fill:#37c837;fill-opacity:1;fill-rule:evenodd;stroke:#000000;stroke-width:1px;stroke-linecap:butt;stroke-linejoin:miter;stroke-opacity:1" />
    <path
       sodipodi:nodetypes="csccccccc"
       inkscape:connector-curvature="0"
       id="path5181"
       d="m 522.6966,548.46035 c -14.9798,-12.99787 -38.917,-17.06473 -61.9479,-10.5247 -33.8108,9.60072 -55.1664,38.7019 -47.6988,64.99905 1.8715,6.49604 5.4349,12.43293 10.4703,17.44458 1.3159,16.99322 0.2395,31.09825 14.8035,64.08631 l 37.23,-5.45017 c -4.3978,-18.42689 -3.3427,-35.22028 15.1893,-46.7784 32.2514,-10.49186 51.9365,-38.67901 44.7455,-64.07108 -2.1316,-7.50645 -6.5148,-14.25866 -12.7919,-19.70559 z"
       style="opacity:1;fill:#37c837;fill-opacity:1;stroke:#000000;stroke-width:3;stroke-opacity:1" />
    <path
       style="opacity:1;fill:#e1e1e1;fill-opacity:1;stroke:#000000;stroke-width:2.48374438;stroke-opacity:1"
       d="M 381.88867 355.3457 C 370.00504 355.3517 358.96689 357.79482 349.85938 361.96875 C 349.8257 362.03949 349.79701 362.10724 349.76367 362.17773 A 46.801308 31.078043 0 0 0 336.46875 360.85547 A 46.801308 31.078043 0 0 0 289.71289 391.32422 L 344.19141 391.32422 C 344.20275 391.51835 344.20428 391.6986 344.2168 391.89453 L 438.37891 392.14844 C 437.77556 371.71515 412.66565 355.35617 381.88867 355.3457 z "
       transform="translate(75.121945,315.49333)"
       id="path5156" />
  </g>
</svg>
