<?xml version="1.0" encoding="UTF-8" standalone="no"?>
<!-- Created with Inkscape (http://www.inkscape.org/) -->

<svg
   xmlns:dc="http://purl.org/dc/elements/1.1/"
   xmlns:cc="http://creativecommons.org/ns#"
   xmlns:rdf="http://www.w3.org/1999/02/22-rdf-syntax-ns#"
   xmlns:svg="http://www.w3.org/2000/svg"
   xmlns="http://www.w3.org/2000/svg"
   xmlns:sodipodi="http://sodipodi.sourceforge.net/DTD/sodipodi-0.dtd"
   xmlns:inkscape="http://www.inkscape.org/namespaces/inkscape"
   id="Layer_1"
   xml:space="preserve"
   version="1.0"
   viewBox="0 0 371.28786 304.12744"
   inkscape:version="0.91 r13725"
   sodipodi:docname="StudioFibonacci-Cartoon-monkey.svg"
   width="371.28787"
   height="304.12744"><defs
     id="defs4372" /><sodipodi:namedview
     pagecolor="#ffffff"
     bordercolor="#666666"
     borderopacity="1"
     objecttolerance="10"
     gridtolerance="10"
     guidetolerance="10"
     inkscape:pageopacity="0"
     inkscape:pageshadow="2"
     inkscape:window-width="1855"
     inkscape:window-height="1056"
     id="namedview4370"
     showgrid="false"
     inkscape:zoom="2.13678"
     inkscape:cx="169.88046"
     inkscape:cy="143.92745"
     inkscape:window-x="65"
     inkscape:window-y="24"
     inkscape:window-maximized="1"
     inkscape:current-layer="layer1"
     fit-margin-top="0"
     fit-margin-left="0"
     fit-margin-right="0"
     fit-margin-bottom="0" /><metadata
     id="metadata4368"><rdf:RDF><cc:Work><dc:format>image/svg+xml</dc:format><dc:type
           rdf:resource="http://purl.org/dc/dcmitype/StillImage" /><cc:license
           rdf:resource="http://creativecommons.org/publicdomain/zero/1.0/" /><dc:publisher><cc:Agent
             rdf:about="http://openclipart.org/"><dc:title>Openclipart</dc:title></cc:Agent></dc:publisher><dc:title>Cartoon monkey</dc:title><dc:date>2009-03-13T21:06:45</dc:date><dc:description>Cartoon monkey. Remixed from Lemmling's Cartoon Cat and Cartoon Beaver.</dc:description><dc:source>https://openclipart.org/detail/22291/cartoon-monkey-by-studiofibonacci</dc:source><dc:creator><cc:Agent><dc:title>StudioFibonacci</dc:title></cc:Agent></dc:creator><dc:subject><rdf:Bag><rdf:li>cartoon</rdf:li><rdf:li>mammal</rdf:li><rdf:li>monkey</rdf:li><rdf:li>remix</rdf:li></rdf:Bag></dc:subject></cc:Work><cc:License
         rdf:about="http://creativecommons.org/publicdomain/zero/1.0/"><cc:permits
           rdf:resource="http://creativecommons.org/ns#Reproduction" /><cc:permits
           rdf:resource="http://creativecommons.org/ns#Distribution" /><cc:permits
           rdf:resource="http://creativecommons.org/ns#DerivativeWorks" /></cc:License></rdf:RDF></metadata><g
     inkscape:groupmode="layer"
     id="layer1"
     inkscape:label="Layer 1"
     style="display:inline"
     transform="translate(-2.2421386,2.013497)"><path
       id="path3229"
       style="fill:#794522;stroke:#010101;stroke-width:4"
       d="m 141.93758,218.15625 c -46.665999,-44.2 -76.817999,6.75 -107.439999,-10.67 -25.834999,-20.17 -6.502,-50.67 8.082,-63.38 27.671,-24.11 -8.598,-14.34 -11.461,-13.53 -8.613,2.42 -43.598,47.05 -17.232,81.69 36.677,48.18 69.314,-6.8 113.659999,24.25 37.71,26.39 13.67,-17.33 14.39,-18.36 z"
       inkscape:connector-curvature="0" /><path
       id="path2383"
       style="fill:#794522;stroke:#010101;stroke-width:4;stroke-linecap:round;stroke-linejoin:round"
       d="m 344.21758,158.90625 c 0.04,68.14 -55.16,123.42 -123.31,123.46 -68.14,0.05 -123.419999,-55.15 -123.459999,-123.3 -0.005,-0.05 -0.005,-0.11 -0.005,-0.16 -0.046,-68.149 55.154999,-123.429995 123.299999,-123.469995 68.15,-0.049 123.43,55.156995 123.48,123.299995 l 0,0.17 z"
       inkscape:connector-curvature="0" /><path
       id="path250"
       style="fill:#794522;stroke:#010101;stroke-width:4;stroke-linecap:round"
       d="m 321.47758,87.98525 c -11.73,-12.387 74.9,82.721 42.94,116.58 -24.94,26.42 -47,39 -56,30 l 6,-25 c 0,0 28,-20 19,-29 -9,-9 -19,-19 -19,-28"
       inkscape:connector-curvature="0" /><path
       id="path266"
       style="fill:#794522;stroke:#010101;stroke-width:4;stroke-linecap:round"
       d="m 119.73758,87.98525 c 11.74,-12.386 -74.898999,82.721 -42.938999,116.58 24.940999,26.42 46.998999,39 55.998999,30 l -6,-25 c 0,0 -27.998999,-20 -19,-29 9,-9 19,-19 19,-28"
       inkscape:connector-curvature="0" /><path
       style="fill:#794522;stroke:#010101;stroke-width:4;stroke-linecap:round;stroke-linejoin:round"
       d="m 223.83672,-0.013745 c 0.64327,7.301948 -1.25787,17.80776 -7.54492,26.091797 -1.31779,0.05993 -2.62822,0.146256 -3.93164,0.257812 -1.86836,-8.205687 -3.33587,-16.743451 -11.24219,-19.894531 1.92972,9.36919 0.37433,15.656726 -1.80859,21.902344 -9.54463,2.139915 -18.56607,5.662847 -26.85157,10.353516 -4.8,-7.629 -13.25968,-12.732422 -22.92968,-12.732422 -14.97,0 -27.1211,12.150187 -27.1211,27.117189 0,9.685 5.09047,18.1747 12.73047,22.9707 -8.08,14.287 -12.73047,30.77351 -12.73047,48.35351 0,54.33 44.07039,98.43946 98.40039,98.43946 54.33,0 98.43946,-44.10946 98.43946,-98.43946 0,-17.58 -4.64852,-34.06651 -12.72852,-48.35351 7.62,-4.8 12.72852,-13.2987 12.72852,-22.9707 0,-14.967002 -12.14914,-27.117189 -27.11914,-27.117189 -9.67,0 -18.12969,5.103422 -22.92969,12.732422 -5.82381,-3.298663 -12.02177,-6.013165 -18.50586,-8.083985 2.70448,-10.969387 -0.10281,-27.037299 -3.67383,-28.587891 -3.75143,13.497491 -7.51106,20.062122 -13.27539,24.78711 -0.91232,-0.120306 -1.82998,-0.225268 -2.75,-0.320313 1.37585,-9.475875 -0.49685,-21.18199 -7.15625,-26.505859 z"
       id="path2479"
       inkscape:connector-curvature="0" /><path
       inkscape:connector-curvature="0"
       d="m 292.45758,37.467255 c -5.44,0 -10.19,2.864995 -12.9,7.146995 8.32,5.602 15.48,12.755 21.08,21.075 4.26,-2.712 7.11,-7.503 7.11,-12.931 0,-8.438 -6.85,-15.290995 -15.29,-15.290995 z"
       style="fill:#a05b2c;stroke:#010101;stroke-width:4;stroke-linecap:round;stroke-linejoin:round"
       id="path2483" /><path
       inkscape:connector-curvature="0"
       d="m 149.45758,37.467255 c 5.44,0 10.19,2.864995 12.9,7.146995 -8.32,5.602 -15.48,12.755 -21.08,21.075 -4.26,-2.712 -7.11,-7.503 -7.11,-12.931 0,-8.438 6.85,-15.290995 15.29,-15.290995 z"
       style="fill:#a05b2c;stroke:#010101;stroke-width:4;stroke-linecap:round;stroke-linejoin:round"
       id="path2523" /><path
       id="path285"
       style="fill:#a05b2c;stroke:#010101;stroke-width:4;stroke-linecap:round;stroke-linejoin:round"
       d="m 277.21758,124.95625 c 0.22,-2.91 0.34,-5.88 0.34,-8.89 l 0,-0.09 c -0.01,-37.939 -17.85,-68.671 -39.84,-68.645 -6.04,0.006 -11.76,2.345 -16.89,6.5 -5.14,-4.169 -10.88,-6.507 -16.94,-6.5 -21.99,0.025 -39.81,30.797 -39.79,68.735 l 0,0.09 c 0,2.98 0.12,5.92 0.34,8.8 -11.9,8.92 -19.12,20.67 -19.11,33.56 l 0,0.06 c 0.03,27.86 33.85,47.43 75.55,47.41 41.7,-0.02 75.48,-19.62 75.45,-47.47 l 0,-0.07 c -0.01,-12.86 -7.23,-24.59 -19.11,-33.49 z"
       inkscape:connector-curvature="0" /><path
       id="path287"
       style="fill:none;stroke:#010101;stroke-width:4;stroke-linecap:round;stroke-linejoin:round"
       d="m 165.82758,145.98625 c 0,0 20.63,27.5 55,27.5 34.38,0 55,-27.5 55,-27.5"
       inkscape:connector-curvature="0" /><path
       inkscape:connector-curvature="0"
       d="m 237.19758,120.81625 c -2.29,3.98 -6.5,5.84 -9.4,4.17 -2.89,-1.67 -3.38,-6.25 -1.09,-10.22 2.29,-3.98 6.5,-5.84 9.4,-4.17 2.9,1.67 3.38,6.25 1.09,10.22 z"
       style="fill:#010101"
       id="path2398" /><path
       inkscape:connector-curvature="0"
       d="m 204.45758,120.81625 c 2.3,3.98 6.5,5.84 9.4,4.17 2.9,-1.67 3.38,-6.25 1.09,-10.22 -2.29,-3.98 -6.5,-5.84 -9.4,-4.17 -2.89,1.67 -3.38,6.25 -1.09,10.22 z"
       style="fill:#010101"
       id="path2412" /><path
       id="path2387"
       style="fill:#ececec;fill-opacity:1;stroke:#010101;stroke-width:4;stroke-linecap:round;stroke-linejoin:round"
       d="m 217.47758,85.82425 c 0.01,11.501 -9.31,20.832 -20.81,20.842 -11.5,0 -20.83,-9.314 -20.84,-20.814 l 0,-0.028 c -0.01,-11.501 9.31,-20.831 20.81,-20.839 11.5,-0.007 20.83,9.31 20.84,20.811 l 0,0.028 z"
       inkscape:connector-curvature="0" /><path
       id="path2393"
       style="fill:#010101"
       d="m 209.33758,88.21825 c 0,3.569 -2.89,6.464 -6.46,6.467 -3.57,0.001 -6.46,-2.889 -6.46,-6.458 l 0,-0.009 c -0.01,-3.569 2.88,-6.465 6.45,-6.467 3.57,-0.003 6.47,2.889 6.47,6.458 l 0,0.009 z"
       inkscape:connector-curvature="0" /><path
       id="path2391"
       style="fill:#ececec;fill-opacity:1;stroke:#010101;stroke-width:4;stroke-linecap:round;stroke-linejoin:round"
       d="m 265.82758,85.82425 c 0.01,11.501 -9.31,20.832 -20.81,20.842 -11.5,0 -20.83,-9.314 -20.84,-20.814 l 0,-0.028 c -0.01,-11.501 9.31,-20.831 20.81,-20.839 11.5,-0.007 20.83,9.31 20.84,20.811 l 0,0.028 z"
       inkscape:connector-curvature="0" /><path
       id="path2395"
       style="fill:#010101"
       d="m 244.76758,88.21825 c 0,3.569 -2.89,6.464 -6.46,6.467 -3.57,0.001 -6.47,-2.889 -6.47,-6.458 l 0,-0.009 c 0,-3.569 2.89,-6.465 6.46,-6.467 3.57,-0.003 6.46,2.889 6.47,6.458 l 0,0.009 z"
       inkscape:connector-curvature="0" /><path
       inkscape:connector-curvature="0"
       d="m 249.79758,273.98625 c 2.8,-13.64 16.41,-20.06 30.87,-20.06 16.53,0 29.95,13.42 29.95,29.95 0,16.53 -13.42,15.94 -29.95,15.94 -5.51,0 -21.31,0.29 -25.22,0.29 -8.24,0 -14.93,0.29 -14.93,-7.95 0,-6.81 3.04,-16.38 9.28,-18.17 z"
       style="fill:#a05b2c;stroke:#010101;stroke-width:4;stroke-linecap:round;stroke-linejoin:round"
       id="path307" /><g
       transform="translate(2.217581,-2.013745)"
       id="g4569"><path
         id="path2510_4_"
         style="fill:none;stroke:#010101;stroke-width:4;stroke-linecap:round"
         d="m 289.16,300.19 c 2.69,-8.7 -0.39,-18.84 -0.39,-18.84"
         inkscape:connector-curvature="0" /><path
         id="path2512_4_"
         style="fill:none;stroke:#010101;stroke-width:4;stroke-linecap:round"
         d="M 276.69,301.12 C 273.39,287.11 277.16,276 277.16,276"
         inkscape:connector-curvature="0" /><path
         id="path2514_8_"
         style="fill:none;stroke:#010101;stroke-width:4;stroke-linecap:round"
         d="m 264.62,300.67 c -6.77,-10.63 -0.97,-19.32 -0.97,-19.32"
         inkscape:connector-curvature="0" /><path
         id="path2514_7_"
         style="fill:none;stroke:#010101;stroke-width:4;stroke-linecap:round"
         d="m 251.34,300.67 c -6.76,-9.33 -0.96,-16.96 -0.96,-16.96"
         inkscape:connector-curvature="0" /></g><path
       inkscape:connector-curvature="0"
       d="m 191.34758,273.98625 c -2.81,-13.64 -16.41,-20.06 -30.87,-20.06 -16.53,0 -29.95,13.42 -29.95,29.95 0,16.53 13.42,15.94 29.95,15.94 5.5,0 21.31,0.29 25.22,0.29 8.24,0 14.92,0.29 14.92,-7.95 0,-6.81 -3.03,-16.38 -9.27,-18.17 z"
       style="fill:#a05b2c;stroke:#010101;stroke-width:4;stroke-linecap:round;stroke-linejoin:round"
       id="path317" /><rect
       style="color:#000000;clip-rule:nonzero;display:inline;overflow:visible;visibility:visible;opacity:1;isolation:auto;mix-blend-mode:normal;color-interpolation:sRGB;color-interpolation-filters:linearRGB;solid-color:#000000;solid-opacity:1;fill:#dfdfdf;fill-opacity:1;fill-rule:nonzero;stroke:none;stroke-width:1;stroke-linecap:butt;stroke-linejoin:miter;stroke-miterlimit:4;stroke-dasharray:2, 2;stroke-dashoffset:0;stroke-opacity:1;color-rendering:auto;image-rendering:auto;shape-rendering:auto;text-rendering:auto;enable-background:accumulate"
       id="rect4716"
       width="156.30997"
       height="58.499237"
       x="144.14212"
       y="211.92221" /><path
       id="path255"
       style="fill:#a05b2c;stroke:#010101;stroke-width:4;stroke-linecap:round;stroke-linejoin:round"
       d="m 303.08758,207.16625 c 12.36,-3.44 23.36,5.03 29.44,16.89 6.96,13.57 1.59,30.23 -11.98,37.18 -13.57,6.96 -18.73,-4.3 -25.68,-17.87 -2.31,-4.52 -9.2,-17.37 -10.84,-20.58 -3.47,-6.76 -6.52,-12.12 0.24,-15.59 5.59,-2.87 14.72,-4.4 18.82,-0.03 z"
       inkscape:connector-curvature="0" /><g
       transform="translate(2.217581,-2.013745)"
       id="g4557"><path
         inkscape:connector-curvature="0"
         d="m 298.51,253.47 c 8.26,-1.45 15.3,-8.24 15.3,-8.24"
         style="fill:#a05b2c;stroke:#010101;stroke-width:4;stroke-linecap:round"
         id="path2510_6_" /><path
         inkscape:connector-curvature="0"
         d="m 291.67,244.05 c 10.12,-8.59 20.82,-10.18 20.82,-10.18"
         style="fill:#a05b2c;stroke:#010101;stroke-width:4;stroke-linecap:round"
         id="path2512_6_" /><path
         inkscape:connector-curvature="0"
         d="m 287.78,233.54 c 5.88,-10.03 15.46,-8.93 15.46,-8.93"
         style="fill:#a05b2c;stroke:#010101;stroke-width:4;stroke-linecap:round"
         id="path2514_12_" /><path
         inkscape:connector-curvature="0"
         d="m 282.2,222.64 c 4.81,-9.47 13.51,-7.92 13.51,-7.92"
         style="fill:#a05b2c;stroke:#010101;stroke-width:4;stroke-linecap:round"
         id="path2514_11_" /></g><path
       id="path270"
       style="fill:#a05b2c;stroke:#010101;stroke-width:4;stroke-linecap:round;stroke-linejoin:round"
       d="m 138.13758,207.16625 c -12.37,-3.44 -23.36,5.03 -29.45,16.89 -6.95,13.57 -1.58,30.23 11.98,37.18 13.57,6.96 18.73,-4.3 25.69,-17.87 2.31,-4.52 9.19,-17.37 10.84,-20.58 3.46,-6.76 6.52,-12.12 -0.24,-15.59 -5.59,-2.87 -14.73,-4.4 -18.82,-0.03 z"
       inkscape:connector-curvature="0" /><g
       transform="translate(2.217581,-2.013745)"
       id="g4575"><path
         inkscape:connector-curvature="0"
         d="m 138.28,253.47 c -8.27,-1.45 -15.3,-8.24 -15.3,-8.24"
         style="fill:#a05b2c;stroke:#010101;stroke-width:4;stroke-linecap:round"
         id="path2510_1_" /><path
         inkscape:connector-curvature="0"
         d="M 145.11,244.05 C 135,235.46 124.3,233.87 124.3,233.87"
         style="fill:#a05b2c;stroke:#010101;stroke-width:4;stroke-linecap:round"
         id="path2512_1_" /><path
         inkscape:connector-curvature="0"
         d="m 149,233.54 c -5.88,-10.03 -15.45,-8.93 -15.45,-8.93"
         style="fill:#a05b2c;stroke:#010101;stroke-width:4;stroke-linecap:round"
         id="path2514_2_" /><path
         inkscape:connector-curvature="0"
         d="m 154.58,222.64 c -4.81,-9.47 -13.51,-7.92 -13.51,-7.92"
         style="fill:#a05b2c;stroke:#010101;stroke-width:4;stroke-linecap:round"
         id="path2514_1_" /></g><g
       transform="translate(2.217581,-2.013745)"
       id="g4563"><path
         id="path2510_5_"
         style="fill:none;stroke:#010101;stroke-width:4;stroke-linecap:round"
         d="m 147.55,300.19 c -2.69,-8.7 0.39,-18.84 0.39,-18.84"
         inkscape:connector-curvature="0" /><path
         id="path2512_5_"
         style="fill:none;stroke:#010101;stroke-width:4;stroke-linecap:round"
         d="M 160.02,301.12 C 163.32,287.11 159.55,276 159.55,276"
         inkscape:connector-curvature="0" /><path
         id="path2514_10_"
         style="fill:none;stroke:#010101;stroke-width:4;stroke-linecap:round"
         d="m 172.1,300.67 c 6.76,-10.63 0.96,-19.32 0.96,-19.32"
         inkscape:connector-curvature="0" /><path
         id="path2514_9_"
         style="fill:none;stroke:#010101;stroke-width:4;stroke-linecap:round"
         d="m 185.37,300.67 c 6.76,-9.33 0.96,-16.96 0.96,-16.96"
         inkscape:connector-curvature="0" /></g><text
       xml:space="preserve"
       style="font-style:normal;font-weight:normal;font-size:40px;line-height:125%;font-family:sans-serif;letter-spacing:3.23000002px;word-spacing:0px;fill:#000000;fill-opacity:1;stroke:none;stroke-width:1px;stroke-linecap:butt;stroke-linejoin:miter;stroke-opacity:1"
       x="166.18195"
       y="255.91364"
       id="text4718"
       sodipodi:linespacing="125%"><tspan
         sodipodi:role="line"
         id="tspan4720"
         x="166.18195"
         y="255.91364"
         style="font-style:normal;font-variant:normal;font-weight:normal;font-stretch:normal;font-family:UnDinaru;-inkscape-font-specification:UnDinaru;letter-spacing:3.23000002px"
         rotate="0 0 0 0 0">HUGO</tspan></text>
</g></svg>